<svg width="64" height="80" viewBox="0 0 64 80" xmlns="http://www.w3.org/2000/svg"><title>3D</title><g fill="#FFF" fill-rule="evenodd"><path d="M40.831 50H21.176c-.65 0-1.176.447-1.176 1 0 .553.525 1 1.176 1h19.648c.65 0 1.176-.447 1.176-1 0-.553-.525-1-1.169-1zM22 48c0 .553.524 1 1.173 1h15.654c.649 0 1.173-.447 1.173-1 0-.553-.524-1-1.173-1H23.173c-.641 0-1.173.447-1.173 1zM24 45c0 .553.538 1 1.204 1h12.592c.666 0 1.204-.447 1.204-1 0-.553-.538-1-1.204-1H25.204c-.658 0-1.204.447-1.204 1zM26 42c0 .553.56 1 1.253 1h9.494c.694 0 1.253-.447 1.253-1 0-.553-.56-1-1.253-1h-9.494c-.685 0-1.253.447-1.253 1zM34.762 39c.685 0 1.238-.447 1.238-1 0-.553-.553-1-1.238-1h-5.524c-.685 0-1.238.447-1.238 1 0 .553.553 1 1.238 1h5.524z"/><path d="M60.6 0H3.392C1.525 0 0 1.497 0 3.327v73.346C0 78.503 1.525 80 3.391 80H60.61C62.475 80 64 78.503 64 76.673V3.327C63.992 1.497 62.475 0 60.6 0zM5.582 3.208c.447-.446 1.266-.446 1.712 0 .235.223.357.525.357.844 0 .318-.13.62-.357.844a1.228 1.228 0 0 1-1.72 0 1.195 1.195 0 0 1-.357-.844c.008-.319.138-.63.365-.844zM50.42 67.534c0 1.115-.925 2.03-2.07 2.03h-1.914c-1.135 0-2.068-.907-2.068-2.03v-.987c0-1.114.924-2.03 2.068-2.03h1.915c1.136 0 2.069.908 2.069 2.03v.987zM8.064 60.267v-4.108h47.864v4.108H8.064zm53.494 7.267c0 1.115-.925 2.03-2.069 2.03h-7.147a4.282 4.282 0 0 0 .503-2.03v-.987c0-.732-.186-1.417-.503-2.03h7.156c1.135 0 2.068.908 2.068 2.03v.987h-.008zm0-9.297c0 1.114-.925 2.03-2.069 2.03h-1.135v-4.434c0-1.138-.941-2.062-2.101-2.062H7.73c-1.16 0-2.1.924-2.1 2.062v4.434H4.493c-1.135 0-2.068-.908-2.068-2.03V9.823c0-1.115.924-2.03 2.068-2.03h55.004c1.135 0 2.068.907 2.068 2.03v48.414h-.008z"/><path d="M58.79 15.361H28.27v-2.063c0-.718-.585-1.298-1.308-1.298h-6.98c-.723 0-1.308.58-1.308 1.298v2.063H4.219c-.675 0-1.219.54-1.219 1.209s.544 1.209 1.219 1.209h14.455v2.063c0 .718.585 1.298 1.308 1.298h.382l2.21 4.312a1.002 1.002 0 0 0 1.788 0l2.21-4.312h.382c.723 0 1.308-.58 1.308-1.298V17.78h30.52c.674 0 1.218-.54 1.218-1.21 0-.668-.536-1.208-1.21-1.208zm-35.322 9.164l-1.739-3.393h3.478l-1.739 3.393z"/></g></svg>