<svg width="96" height="96" viewBox="0 0 96 96" xmlns="http://www.w3.org/2000/svg"><title>ICON</title><g fill="#FC4201" fill-rule="evenodd"><path d="M48.322 95.912l-.675-.004.257-16.392.418.003c.48 0 .96-.012 1.436-.029l.736 16.372c-.72.034-1.442.05-2.172.05zm-2.075-.045a45.496 45.496 0 0 1-2.833-.208l1.687-16.305c.611.065 1.229.11 1.852.136l-.706 16.377zm5.663-.088l-1.224-16.348a29.658 29.658 0 0 0 1.851-.192l2.199 16.244c-.929.124-1.881.226-2.826.296zm-9.902-.282a49.334 49.334 0 0 1-2.8-.461l3.124-16.088a32.46 32.46 0 0 0 1.843.298l-2.167 16.251zm14.128-.226l-2.677-16.17a33.215 33.215 0 0 0 1.819-.359l3.653 15.98a45.38 45.38 0 0 1-2.795.549zm-18.319-.526a45.58 45.58 0 0 1-2.759-.711l4.574-15.741c.59.172 1.188.325 1.793.466l-3.608 15.986zm22.495-.361l-4.136-15.86a31.994 31.994 0 0 0 1.788-.523l5.073 15.587c-.891.288-1.808.558-2.725.796zm-26.613-.766a49.68 49.68 0 0 1-2.682-.957l5.974-15.267c.578.226 1.161.438 1.752.628l-5.044 15.596zm30.687-.494l-5.543-15.425a29.92 29.92 0 0 0 1.723-.68l6.462 15.063c-.865.374-1.755.724-2.642 1.042zm-34.692-1.005a47.282 47.282 0 0 1-2.578-1.194l7.319-14.666c.555.278 1.12.54 1.695.784l-6.436 15.076zm38.631-.613l-6.917-14.86a33.575 33.575 0 0 0 1.664-.836l7.786 14.427c-.824.442-1.676.868-2.533 1.269zm-42.477-1.237a47.494 47.494 0 0 1-2.463-1.423l8.617-13.943a31.03 31.03 0 0 0 1.612.93l-7.766 14.436zm46.246-.726l-8.211-14.187c.534-.31 1.062-.635 1.575-.979l9.052 13.669a47.481 47.481 0 0 1-2.416 1.497zm-49.906-1.46a47.324 47.324 0 0 1-2.322-1.635l9.823-13.122a30.56 30.56 0 0 0 1.526 1.075l-9.027 13.682zm53.494-.836l-9.458-13.393c.51-.356 1.007-.731 1.494-1.12l10.228 12.812a50.066 50.066 0 0 1-2.264 1.701zm-56.944-1.671a44.49 44.49 0 0 1-2.165-1.833l10.958-12.189c.463.418.939.819 1.422 1.206L18.738 85.576zm60.3-.93L68.437 72.144c.474-.402.935-.817 1.382-1.246L81.15 82.744a47.244 47.244 0 0 1-2.112 1.902zm-63.504-1.865a47.607 47.607 0 0 1-1.996-2.021l12.001-11.164c.423.454.859.894 1.308 1.323L15.534 82.781zm66.627-1.033l-11.68-11.501c.438-.447.862-.903 1.27-1.371l12.338 10.795a51.723 51.723 0 0 1-1.928 2.077zm-69.572-2.037a50.615 50.615 0 0 1-1.809-2.194L23.733 67.47c.379.49.774.969 1.182 1.434L12.589 79.711zm72.424-1.129L72.351 68.17a30.62 30.62 0 0 0 1.143-1.477l13.253 9.647a50.796 50.796 0 0 1-1.734 2.242zM9.932 76.39a45.438 45.438 0 0 1-1.607-2.346l13.795-8.853c.335.521.683 1.032 1.049 1.529L9.932 76.39zm77.631-1.208L74.031 65.93c.35-.512.686-1.033 1.004-1.566l14.059 8.426a45.07 45.07 0 0 1-1.531 2.392zM7.577 72.841a47.956 47.956 0 0 1-1.388-2.477l14.532-7.581c.287.548.592 1.088.909 1.616L7.577 72.841zm82.231-1.284l-14.305-8.002c.303-.539.587-1.088.857-1.647l14.766 7.12a47.598 47.598 0 0 1-1.318 2.529zM5.552 69.098c-.412-.852-.8-1.721-1.16-2.59l15.153-6.249c.238.573.491 1.14.761 1.695L5.552 69.098zm86.171-1.362L76.754 61.06a35.79 35.79 0 0 0 .704-1.719l15.346 5.762a49.267 49.267 0 0 1-1.081 2.633zM3.871 65.189a47.382 47.382 0 0 1-.927-2.695l15.659-4.85c.183.591.385 1.174.602 1.747L3.871 65.189zm89.413-1.431L77.77 58.466a29.05 29.05 0 0 0 .547-1.774l15.806 4.349c-.252.906-.531 1.82-.839 2.717zM2.545 61.135a50.047 50.047 0 0 1-.679-2.768l16.035-3.416c.127.607.275 1.205.44 1.797L2.545 61.135zm91.936-1.475l-15.933-3.865c.146-.598.275-1.208.386-1.819l16.134 2.905a49.931 49.931 0 0 1-.587 2.779zM1.592 56.972a49.264 49.264 0 0 1-.425-2.809l16.275-1.965c.073.62.167 1.234.279 1.842L1.592 56.972zm93.707-1.489l-16.213-2.431c.09-.609.165-1.224.219-1.844l16.328 1.452a48.436 48.436 0 0 1-.334 2.823zm-94.28-2.73a49.072 49.072 0 0 1-.175-2.824l16.385-.522c.019.627.059 1.25.114 1.867L1.019 52.753zm94.717-1.508l-16.361-.964c.033-.619.052-1.24.052-1.868v-.158h16.391v.07a46.322 46.322 0 0 1-.082 2.92zM.822 48.493v-.079c0-.911.025-1.832.078-2.737l16.365.934c-.035.598-.05 1.198-.05 1.804l-16.393.078zm78.589-1.134a31.054 31.054 0 0 0-.117-1.865l16.32-1.517c.086.928.149 1.877.181 2.825l-16.384.557zM17.332 45.68L1 44.264c.083-.943.193-1.894.33-2.822l16.216 2.392c-.089.61-.16 1.225-.214 1.846zm61.864-1.108a31.28 31.28 0 0 0-.284-1.844l16.122-2.969c.169.92.313 1.864.432 2.802l-16.27 2.011zm-61.499-1.659L1.56 40.041c.165-.932.362-1.867.583-2.786l15.935 3.843a29.338 29.338 0 0 0-.381 1.815zm61.034-1.087a30.318 30.318 0 0 0-.447-1.812l15.788-4.407c.251.903.481 1.829.68 2.752l-16.021 3.467zm-60.423-1.632L2.493 35.881c.25-.912.53-1.829.833-2.725l15.524 5.269a29.915 29.915 0 0 0-.542 1.769zm59.714-1.068a33.02 33.02 0 0 0-.607-1.755l15.323-5.819c.334.882.646 1.785.93 2.689l-15.646 4.885zm-58.858-1.584L3.805 31.817a47.82 47.82 0 0 1 1.076-2.638l14.986 6.642c-.252.566-.486 1.14-.703 1.721zm57.91-1.03a32.193 32.193 0 0 0-.763-1.694l14.738-7.176c.41.844.799 1.715 1.162 2.586l-15.137 6.284zm-56.817-1.536l-14.779-7.09c.406-.85.846-1.699 1.305-2.525l14.33 7.96a29.388 29.388 0 0 0-.856 1.655zm55.637-.982c-.289-.55-.594-1.09-.914-1.621l14.036-8.469a48.69 48.69 0 0 1 1.393 2.469l-14.515 7.621zm-54.318-1.479L7.494 24.126c.481-.81.997-1.618 1.53-2.4l13.552 9.221a30.373 30.373 0 0 0-1 1.568zm52.915-.931a32.498 32.498 0 0 0-1.057-1.532l13.222-9.689c.558.76 1.1 1.546 1.609 2.337l-13.774 8.884zm-51.38-1.4L9.838 20.565a50.342 50.342 0 0 1 1.731-2.247L24.25 28.705c-.393.482-.773.973-1.139 1.479zm49.759-.877a30.079 30.079 0 0 0-1.183-1.429l12.305-10.832c.623.71 1.232 1.447 1.812 2.191L72.87 29.307zm-48.018-1.313L12.488 17.231a48.663 48.663 0 0 1 1.929-2.085l11.697 11.483a30.7 30.7 0 0 0-1.262 1.365zm46.208-.808a32.064 32.064 0 0 0-1.31-1.323l11.291-11.88a46.297 46.297 0 0 1 1.998 2.014L71.06 27.186zm-44.283-1.214L15.423 14.149a49.83 49.83 0 0 1 2.106-1.905l10.629 12.48a32.45 32.45 0 0 0-1.381 1.248zm42.291-.739a30.167 30.167 0 0 0-1.432-1.204l10.191-12.841a48.381 48.381 0 0 1 2.168 1.827L69.068 25.233zm-40.192-1.101L18.623 11.341a48.89 48.89 0 0 1 2.264-1.706l9.476 13.374c-.507.36-1.003.735-1.487 1.123zm38.025-.671a31.933 31.933 0 0 0-1.526-1.071l9.001-13.698a49.279 49.279 0 0 1 2.328 1.63l-9.803 13.139zm-35.771-.979L22.056 8.83a47.67 47.67 0 0 1 2.409-1.498L32.708 21.5c-.538.313-1.063.64-1.578.982zm33.459-.591a32.376 32.376 0 0 0-1.612-.927l7.73-14.453c.831.442 1.662.922 2.471 1.417l-8.589 13.963zm-31.075-.843L25.705 6.636c.831-.45 1.684-.882 2.533-1.275l6.938 14.851c-.565.264-1.118.541-1.662.836zm28.628-.513a30.987 30.987 0 0 0-1.685-.775L66.86 4.67c.871.371 1.743.771 2.587 1.193l-7.305 14.672zm-26.124-.704L29.531 4.778a45.696 45.696 0 0 1 2.637-1.043l5.574 15.414a29.82 29.82 0 0 0-1.724.682zm23.577-.422a31.68 31.68 0 0 0-1.754-.622L62.855 3.18c.9.29 1.806.612 2.687.954l-5.947 15.275zm-20.979-.561L33.514 3.271a48.377 48.377 0 0 1 2.728-.805L40.4 18.32a31.8 31.8 0 0 0-1.784.528zm18.335-.331a30.381 30.381 0 0 0-1.8-.459l3.586-15.997c.923.208 1.851.445 2.757.706l-4.543 15.75zm-15.652-.416L37.623 2.125c.921-.21 1.86-.398 2.786-.552l2.714 16.166c-.614.102-1.224.222-1.824.362zm12.945-.232a29.756 29.756 0 0 0-1.836-.298L54.54 1.318c.937.124 1.881.277 2.804.454l-3.1 16.097zm-10.202-.273L41.813 1.357a47.011 47.011 0 0 1 2.819-.3l1.263 16.342c-.623.049-1.242.114-1.853.197zm7.443-.131a30.994 30.994 0 0 0-1.86-.132L50.303.954c.943.04 1.896.108 2.831.201l-1.649 16.31zm-4.664-.123L46.058.969a48.119 48.119 0 0 1 2.256-.055l.564.004-.181 16.39-.375-.001c-.499 0-1 .012-1.501.035zM48.32 20.809h-.224a.11.11 0 0 1-.024.002H47.895c-.005.002-.01.002-.014.002H47.836l-.014.001h-.054l-.011.001h-.05l-.012.001h-.05l-.022.001h-.012l-.016.001h-.049l-.014.001h-.022l-.014.001h-.025c-.002 0-.009 0-.012.002h-.025l-.052.001H47.356l-.009.001h-.025c-.019 0-.036.002-.055.003h-.053c-.021.002-.043.002-.061.005h-.05a2.478 2.478 0 0 1-.086.005h-.022l-.086.005h-.002l-.021.001h-.003c-.702.036-1.395.097-2.083.184l1.472 11.615a16.57 16.57 0 0 1 2.032-.125V20.809h.016zm-4.665.392c-.059.009-.117.021-.176.031h-.005a.07.07 0 0 0-.018.004h-.005c-.018.002-.036.007-.054.011h-.01c-.004.002-.009.002-.013.003l-.01.001-.014.003a.03.03 0 0 0-.013.003l-.021.001a.1.1 0 0 1-.016.002.015.015 0 0 1-.01.003l-.013.003-.012.001-.016.003-.01.002c-.009 0-.013.002-.022.003l-.009.001-.018.003-.007.001-.021.005-.005.001c-.018.002-.036.007-.05.009h-.004l-.027.005c-.027.004-.052.011-.079.016-.002 0 0-.001 0-.001-.941.184-1.862.415-2.761.692l3.423 11.195c.636-.195 1.296-.35 1.955-.461l-1.959-11.54zm-4.533 1.179l-.269.096-.007.001a.058.058 0 0 1-.014.005c-.002 0-.004 0-.007.003-.011.003-.022.009-.034.011h-.002c-.004.002-.011.006-.016.007l-.004.001c-.005.003-.011.007-.018.008l-.005.002a.877.877 0 0 0-.049.018c-.002.001-.007.001-.009.003l-.014.005a.027.027 0 0 1-.011.002l-.011.006c-.007.002-.014.004-.02.008a.068.068 0 0 1-.012.003c-.002.001-.006.004-.009.004l-.014.004a.07.07 0 0 0-.013.005l-.009.004-.021.009-.006.001c-.005.003-.012.003-.018.005-.002.002-.005.002-.007.005-.007.002-.011.004-.018.004-.002.003-.005.003-.007.004l-.022.007v.001c-.009.003-.018.006-.023.01l-.007.001a.138.138 0 0 1-.02.008s-.004 0-.004.002l-.021.007c0 .002-.002.002-.002.002l-.027.009v.002a.047.047 0 0 0-.022.009h-.005l-.022.009h-.003c-.016.007-.034.013-.047.02h-.004a29.894 29.894 0 0 0-1.388.588.145.145 0 0 1-.025.01v.002c-.009.005-.016.007-.025.01l-.047.021c0 .002-.005.002-.005.003-.004.003-.013.006-.018.008l-.004.002c-.009.004-.016.008-.025.01a.12.12 0 0 0-.02.011l-.007.001-.016.01-.009.002-.045.021-.007.003-.016.007-.009.003c-.004.002-.009.007-.014.008-.004 0-.004.001-.007.003a.075.075 0 0 0-.02.009l-.012.004c-.002.002-.009.004-.011.007a.066.066 0 0 0-.011.004.049.049 0 0 1-.011.004l-.009.005c-.005.004-.014.005-.018.009l-.016.007-.011.006c0 .001-.004.005-.009.006-.005.001-.009.001-.009.003l-.014.006-.004.002c-.011.006-.022.012-.029.014-.002.002-.002.002-.007.003-.004.003-.009.003-.014.007l-.004.003c-.007.003-.014.003-.018.008l-.004.002a13.805 13.805 0 0 0-.454.225l5.276 10.45a15.8 15.8 0 0 1 1.852-.79L39.122 22.38zm-4.265 1.93c-.341.192-.678.387-1.009.592v.002c-.004.005-.014.007-.018.012-.018.009-.032.019-.05.03l-.004.001-.014.01-.004.002-.047.029c-.002 0-.005.003-.005.003-.006.001-.011.004-.016.007 0 .003-.004.005-.004.007a.92.92 0 0 1-.045.024c0 .003-.004.005-.004.005l-.014.009c-.004.002-.004.004-.009.006a.022.022 0 0 0-.009.008.028.028 0 0 0-.018.011c-.004 0-.004.002-.011.004-.004.002-.007.007-.011.008-.002.001-.004.003-.011.005a.055.055 0 0 1-.011.01l-.009.005-.018.011c-.002.002-.004.003-.004.005l-.018.009-.009.004c0 .003-.007.007-.011.009-.002.002-.002.003-.007.004l-.041.026-.007.003c-.007.003-.011.009-.016.01 0 .003-.004.004-.004.004l-.021.014h-.002l-.021.014c-.002.001-.007.002-.007.004a.049.049 0 0 1-.016.01c-.002.001-.002.002-.007.003-.004.005-.011.008-.018.012l-.002.002a.06.06 0 0 1-.02.014l-.004.002c-.005.004-.012.006-.016.012a.014.014 0 0 0-.007.002.13.13 0 0 0-.02.015l-.023.013-.002.002a.255.255 0 0 0-.021.014l-.002.001-.023.015c-.013.009-.027.019-.045.029v.001c-.009.004-.014.009-.022.015-.014.009-.032.018-.045.028l-.002.003-.021.014a1.062 1.062 0 0 1-.045.029l-.004.002a.094.094 0 0 1-.018.014v.002c-.018.009-.031.018-.047.028a.078.078 0 0 1-.022.015v.002l-.045.029-.002.001a.093.093 0 0 1-.018.013l-.004.002a.473.473 0 0 1-.043.031l-.002.001a.116.116 0 0 1-.021.015l-.002.001c-.014.009-.027.021-.043.029l-.002.001-.018.013-.004.002c-.004.006-.014.01-.018.013-.004 0-.004.002-.004.002-.004.006-.014.01-.021.015l-.002.002c-.005.003-.014.008-.018.012 0 .002-.005.003-.005.005-.006.003-.011.008-.018.011l-.004.002c-.004.006-.011.01-.018.015l-.007.003-.016.01c-.002.003-.004.004-.004.006-.007.003-.011.004-.018.009 0 .002-.002.004-.005.006-.004.004-.013.008-.018.012-.004.001-.004.003-.009.003a.026.026 0 0 1-.014.011l-.007.006a.042.042 0 0 1-.013.008c-.002.003-.005.003-.007.007l-.016.011c-.004.001-.006.004-.011.008a.067.067 0 0 0-.011.007c-.002.003-.007.004-.009.008l-.011.006-.009.009c-.004.001-.007.004-.011.008-.007.001-.011.006-.016.011-.005.001-.005.005-.009.006a.064.064 0 0 1-.014.008c0 .002-.004.003-.007.006l-.011.008c-.004.002-.004.004-.004.004l-.029.021v.002c-.007.002-.011.006-.016.01l-.005.002-.065.048c-.102.07-.201.144-.298.216l6.97 9.409c.54-.401 1.113-.771 1.698-1.1l-5.725-10.21zm-3.876 2.625c-.002.002-.005.003-.009.004 0 .002-.004.003-.004.005-.004.005-.009.007-.009.009-.007.003-.009.005-.011.008l-.018.015c-.002.002-.007.004-.009.007a10449060055.05 10449060055.05 0 0 1-.018.016c-.005.001-.007.005-.011.007l-.014.011c-.002.005-.009.008-.011.011l-.011.007a.038.038 0 0 1-.009.009c0 .001-.004.004-.009.005 0 .003-.005.008-.009.008 0 .004-.004.006-.009.009l-.016.014-.011.008-.009.007-.009.01-.009.005-.014.011c-.005.003-.009.008-.014.01l-.009.009-.009.006c-.002.005-.007.005-.009.008-.005.003-.005.005-.009.008a.022.022 0 0 0-.009.007c-.005.005-.014.01-.018.015-.005.003-.005.005-.009.008-.002.004-.007.006-.009.009-.005.001-.005.005-.009.006-.002.003-.004.008-.011.01l-.007.005a.118.118 0 0 1-.02.017l-.007.004c-.002.003-.004.007-.009.009a.022.022 0 0 0-.009.007l-.009.009c-.004.003-.009.006-.009.008l-.018.014-.009.008c-.004.003-.004.005-.009.007-.002.004-.009.007-.009.009l-.009.007-.014.011c-.002.003-.007.005-.009.009-.005.003-.009.007-.014.009-.004.004-.004.007-.009.01-.004.002-.004.005-.009.008a.02.02 0 0 0-.009.006.038.038 0 0 0-.009.009c-.007.003-.009.007-.016.011a.027.027 0 0 1-.011.01c-.002.002-.004.005-.009.007-.002.003-.007.005-.009.009l-.009.008-.011.009-.007.007a.107.107 0 0 1-.018.015l-.009.008c0 .002-.004.004-.009.008 0 0-.004.004-.009.006a.043.043 0 0 1-.009.01c-.004.003-.004.005-.009.008l-.018.015c0 .001-.004.003-.004.007a.08.08 0 0 0-.014.009l-.006.007c-.005.003-.012.007-.014.013l-.004.001c-.007.008-.012.011-.021.018l-.004.004c-.005.003-.009.009-.014.011-.006.004-.006.004-.006.008l-.014.011c-.004.001-.004.003-.004.003-.009.006-.014.01-.018.018l-.007.002-.014.012-.007.004c-.004.006-.009.01-.013.014l-.005.003-.018.017-.004.002-.016.016-.005.003-.016.013-.004.002c-.004.007-.014.012-.018.017v.001a.074.074 0 0 0-.018.017c-.004.001-.004.001-.004.003-.005.004-.009.01-.018.015v.001c-.009.006-.014.014-.021.019h-.002c-.004.006-.011.01-.018.017l-.004.002-.014.016h-.004a.682.682 0 0 0-.038.036l-.002.002c-.009.005-.014.011-.021.018l-.038.036h-.002c-.007.006-.014.012-.018.019h-.002c-.487.442-.961.899-1.417 1.375l8.453 8.103a16.49 16.49 0 0 1 1.495-1.373l-7.363-9.101zm-3.382 3.24c-.004.008-.009.012-.014.017v.001a.08.08 0 0 0-.013.013s0 .003-.005.005c0 .002-.004.008-.009.01 0 .002-.004.005-.004.008-.005.005-.014.011-.018.018l-.005.009-.009.009c-.004.002-.004.005-.009.008l-.004.008c-.004.004-.009.008-.011.012l-.007.008c-.007.005-.011.011-.016.017-.002.003-.002.005-.007.008-.004.005-.004.006-.009.01-.002.005-.004.005-.006.009a.032.032 0 0 1-.012.011c-.002.002-.004.003-.004.007-.004.007-.011.011-.018.018 0 .001-.002.004-.004.004a.034.034 0 0 1-.009.015l-.009.006c0 .005-.004.009-.009.012a.105.105 0 0 1-.022.025v.004l-.013.015c-.002.002-.005.004-.005.006a.042.042 0 0 0-.011.015l-.007.005a.126.126 0 0 1-.013.017c-.002.002-.005.003-.005.006-.004.005-.009.008-.013.015 0 .001-.002.004-.005.005l-.013.015c0 .001 0 .002-.002.003l-.018.021-.002.002c-.004.005-.009.01-.013.017 0 .002-.005.003-.005.004-.004.006-.009.009-.013.016v.005a.043.043 0 0 0-.018.017v.002a.298.298 0 0 1-.018.017l-.002.006-.011.015-.004.003-.034.04c0 .002-.002.002-.002.005l-.014.015c0 .002-.002.002-.004.003-.011.014-.023.027-.032.041 0 .002-.004.002-.004.002l-.014.019-.002.002c-.011.013-.02.026-.034.041l-.002.003-.013.016c-.002.001-.002.002-.002.003-.011.013-.022.027-.034.039 0 .002-.002.003-.002.003a.056.056 0 0 1-.014.016c0 .002 0 .005-.004.007a.141.141 0 0 0-.014.017l-.002.001-.016.019-.002.004c-.007.006-.012.011-.014.017-.002.001-.002.001-.002.004-.007.006-.009.011-.014.016l-.004.003a.074.074 0 0 1-.016.02l-.002.004-.013.016-.005.005c-.004.005-.009.01-.013.017v.003a.105.105 0 0 0-.018.019v.003a.06.06 0 0 0-.016.017c-.002.001-.002.003-.002.004l-.014.016-.004.003-.015.021-.002.002-.014.016a.012.012 0 0 1-.005.005c-.003.006-.007.01-.012.015l-.003.006-.016.02-.002.003a.101.101 0 0 0-.013.016c-.001.002-.003.002-.004.005-.006.004-.009.009-.013.014-.001.001-.003.003-.003.006a.145.145 0 0 1-.017.018l-.001.004c-.003.005-.009.01-.015.017l-.004.006c-.002.006-.007.009-.009.014l-.005.007-.016.017a.04.04 0 0 0-.002.006c-.004.005-.01.01-.013.015-.001.002-.005.005-.005.008-.004.004-.006.009-.011.013l-.005.006-.015.02-.001.002-.013.018c-.001.001-.003.002-.005.006-.003.005-.009.009-.01.012l-.007.007c-.003.004-.007.013-.011.017l-.006.005c-.003.007-.008.012-.012.016a.015.015 0 0 1-.007.009.023.023 0 0 1-.008.011c-.003.005-.003.006-.006.008l-.011.012-.008.011-.01.014c-.001.003-.006.005-.007.008-.003.004-.004.008-.009.012l-.006.007c-.002.005-.007.009-.009.014l-.008.009c-.004.006-.01.011-.013.017l-.005.008c-.004.002-.005.007-.009.012-.001.004-.006.005-.007.009-.003.002-.004.006-.009.011-.002.003-.003.006-.006.008-.006.006-.008.013-.013.018-.003.002-.003.005-.007.008l-.009.011-.006.009c-.003.003-.005.008-.009.011-.001.002-.005.005-.006.008l-.015.02-.004.007c-.002.003-.008.007-.009.01-.003.006-.004.007-.008.01a.044.044 0 0 1-.008.011c-.003.002-.004.007-.006.008l-.015.018c0 .003-.003.005-.005.008l-.009.01-.005.01c-.003.005-.008.008-.009.011l-.007.01c-.002.006-.008.011-.015.016l-.004.008c-.001.004-.005.007-.009.012l-.006.009a.087.087 0 0 0-.009.011c-.002.003-.005.005-.005.008a.09.09 0 0 1-.016.018c-.002.002-.002.003-.003.007l-.01.014c-.002.001-.003.004-.005.007l-.01.013a.055.055 0 0 0-.006.008c-.003.007-.009.013-.013.018-.001.002-.002.005-.005.005a.046.046 0 0 1-.011.016l-.004.007-.009.015c-.003.001-.003.003-.004.006-.005.008-.01.013-.016.019l-.001.002a.044.044 0 0 1-.015.018c0 .002-.001.005-.004.006-.001.006-.005.01-.009.015-.001.003-.005.006-.005.006l-.029.041c-.001.003-.003.004-.004.005-.003.005-.005.013-.012.017l-.002.004c-.009.015-.021.027-.028.041-.003.001-.003.003-.003.005a.101.101 0 0 0-.013.016l-.003.004c-.009.013-.021.027-.029.041l-.002.004c-.007.004-.009.013-.013.018-.002.001-.003.001-.003.003l-.03.042-.002.002c-.006.006-.01.014-.015.021l-.001.002c-.017.022-.031.045-.046.065-.113.158-.223.316-.33.475l9.693 6.566c.377-.558.794-1.097 1.242-1.604l-8.797-7.735zm-2.787 3.764a26.1 26.1 0 0 0-.419.704l-.001.001-.014.022-.001.001-.026.045-.001.004c-.003.004-.008.01-.011.017a.022.022 0 0 1-.003.005l-.01.02-.002.003a.095.095 0 0 0-.011.02l-.006.008-.005.014c-.004.002-.006.006-.006.008l-.008.014-.006.011-.01.016-.008.014c0 .003-.001.004-.003.007a.057.057 0 0 1-.008.013l-.003.009-.028.047v.003a.083.083 0 0 0-.009.016l-.003.003a28.03 28.03 0 0 0-1.045 2.07l10.668 4.833c.275-.61.594-1.211.946-1.783l-9.967-6.145zm-2.111 4.179c-.071.176-.141.354-.207.534-.005.008-.008.017-.011.024v.002l-.018.049-.002.002c-.002.01-.006.016-.007.022l-.002.005c-.002.007-.005.013-.006.02l-.002.006a.391.391 0 0 1-.01.022l-.001.004c-.001.006-.004.011-.007.018l-.002.009-.007.016-.002.008c-.002.005-.004.013-.008.02l-.001.005c-.003.007-.004.014-.009.02a.03.03 0 0 0-.002.01c-.002.003-.003.01-.004.013l-.004.011-.003.011a.029.029 0 0 0-.003.014c-.002.005-.007.012-.008.018-.002.004-.003.01-.006.014l-.004.01-.003.014-.003.009c-.002.003-.003.009-.006.013a.012.012 0 0 1-.002.005c-.002.011-.006.02-.01.029l-.001.009c-.003.004-.003.009-.007.014l-.002.007-.005.016-.001.006c-.004.011-.009.022-.012.034l-.002.001c-.001.006-.002.012-.005.016v.004c-.001.006-.005.014-.007.018l-.001.004-.021.057v.001a.115.115 0 0 1-.006.017l-.001.004c-.092.257-.178.518-.261.78l-.001.001a3.512 3.512 0 0 1-.025.079v.002l-.006.017-.001.004c-.007.018-.011.036-.018.057l-.001.002-.005.018-.001.005-.007.018-.016.059-.003.003a.058.058 0 0 1-.006.017v.005a.475.475 0 0 1-.018.053l-.001.004-.004.017-.001.007c-.002.006-.005.011-.005.017 0 0-.002.002-.002.005-.002.01-.007.019-.009.029l-.002.008c-.001.004-.003.009-.003.015a.026.026 0 0 1-.005.009.05.05 0 0 1-.003.014.024.024 0 0 0-.002.009.233.233 0 0 0-.009.029l-.001.004-.004.015-.002.008a.057.057 0 0 1-.004.014l-.002.011-.004.012-.004.018a.054.054 0 0 0-.004.015.13.13 0 0 0-.003.013l-.003.01a.263.263 0 0 0-.003.013l-.003.009-.006.021-.002.006-.006.021-.001.008-.007.017a.024.024 0 0 0-.002.009.085.085 0 0 0-.004.017s-.001.005-.003.006a.187.187 0 0 1-.004.025l-.001.003c-.003.008-.004.015-.008.02l-.001.008-.006.02-.001.003a.759.759 0 0 0-.014.051l-.002.004-.006.021v.003l-.016.053c-.002.008-.006.016-.007.026v.002a2.223 2.223 0 0 0-.022.077v.001l-.085.319 11.334 2.946a15.45 15.45 0 0 1 .627-1.91l-10.874-4.367zm-1.37 4.479c-.069.317-.131.637-.188.959v.003c-.001.008-.004.016-.004.023v.001c-.003.017-.005.035-.01.053l-.001.003-.003.021v.008l-.003.018-.001.006a.178.178 0 0 1-.004.026v.001a1.772 1.772 0 0 0-.003.025l-.001.008a.027.027 0 0 0-.004.016l-.001.008-.003.018-.001.007c0 .009-.002.016-.003.023l-.001.009-.003.016-.001.011-.002.013-.001.013c-.001.002-.004.006-.004.011 0 .01-.002.021-.004.032v.001l-.001.017-.003.008-.001.015c0 .002 0 .006-.002.009l-.002.016v.006l-.006.033v.003c-.003.008-.003.012-.003.019l-.001.007-.003.016v.006l-.012.079-.001.005-.001.017c-.003.001-.003.003-.003.005l-.011.082v.001c-.004.036-.01.071-.017.106v.001a29.896 29.896 0 0 0-.181 1.535v.003l-.001.018v.002c-.003.028-.007.056-.008.084v.004l-.001.018v.003l-.002.017 11.667.982c.057-.67.156-1.344.296-1.998l-11.457-2.452zm-.59 4.644c-.012.33-.021.659-.023.992v.045l-.001.022V48.525l.001.018v.138l.002.017V48.858l.001.016v.047l.001.042v.047c.003.021.003.043.003.064v.026l.001.018v.004l.002.065.001.021v.002a26.7 26.7 0 0 0 .086 1.535l11.667-.977a16.168 16.168 0 0 1-.042-2.043l-11.699-.484zm11.811 3.206L20.938 51.92l.012.096.011.084v.004a.11.11 0 0 1 .002.019l.001.003a.6.6 0 0 0 .009.065l.002.015v.009l.003.014.001.012a.066.066 0 0 1 .001.015l.004.022v.01c0 .005 0 .01.002.015a.037.037 0 0 1 .001.011l.001.015c.002.003.002.007.002.01a.142.142 0 0 1 .004.02v.006c.004.003.006.011.006.018 0 .002 0 .007.002.009l.001.019.001.008.002.02v.003c.004.019.005.037.01.054v.004a.35.35 0 0 0 .004.026c.144.965.336 1.914.579 2.84l11.333-2.938a16.725 16.725 0 0 1-.38-1.981zm.565 2.627L21.92 56.497v.003a.135.135 0 0 1 .008.024l.001.005.007.018.001.007c.002.007.004.016.007.022v.002c.006.019.012.034.017.053.003.007.004.016.009.024.106.343.219.682.34 1.021l.027.077.001.002c.003.007.005.016.009.022v.002c.005.019.012.034.018.05v.003l.009.02c0 .005 0 .005.003.005a.184.184 0 0 0 .007.024h.001c.002.012.006.019.008.025v.004a.082.082 0 0 1 .009.019c.001.005.001.007.003.009.002.005.002.012.006.019l.002.007a.145.145 0 0 0 .009.022l.001.002c.002.007.006.014.007.022.002 0 .003.005.003.007l.005.014c0 .002 0 .007.003.009l.006.016.005.017a.072.072 0 0 1 .005.014c.002.002.002.009.003.011.003.005.005.007.005.012.002.002.003.009.004.011l.005.012c.004.016.01.031.018.047l.001.007c.003.005.004.012.007.014l.002.007c.008.019.013.036.019.055 0 .002.002.002.002.002.001.007.005.011.006.021h.003c.193.51.401 1.007.624 1.501l10.667-4.827a16.49 16.49 0 0 1-.706-1.886zm1.002 2.488L23.668 60.84c.324.646.673 1.273 1.046 1.888.027.045.055.095.087.143.208.336.422.668.645.998l9.696-6.563a15.78 15.78 0 0 1-1.023-1.744zm1.413 2.294l-9.407 6.972a27.368 27.368 0 0 0 2.263 2.683l8.453-8.101a16.348 16.348 0 0 1-1.309-1.554zm1.793 2.033l-8.105 8.452c.293.28.587.552.89.817.02.019.041.036.063.055l.059.052.002.002.061.055h.002c.006.004.011.011.02.018l.041.034v.002c.009.005.014.01.021.016l.002.003c.004.004.013.014.018.016l.002.002c.007.005.011.01.018.014.002 0 .002.005.002.005a.045.045 0 0 1 .018.014h.004a.04.04 0 0 0 .018.018v.002c.009.005.014.012.022.017v.004c.009.005.014.01.018.014l.005.002c.004.005.009.012.018.017h.002a.07.07 0 0 0 .016.018c.004 0 .004.002.004.005l.018.011c0 .003 0 .003.002.003.014.013.027.022.039.036 0 0 .004 0 .004.002a.03.03 0 0 1 .018.012l.002.004c.016.012.025.022.038.031l.005.005c.004.005.013.009.018.014l.002.005c.014.009.027.022.041.031.002 0 .002 0 .002.002l.018.016h.004c.012.014.027.023.041.034v.002l.018.014s.002 0 .004.005c.014.009.027.021.041.031v.005c.007.005.014.009.018.014 0 .002.002.002.004.002l.041.034c.009.004.013.011.018.016l.004.002a.572.572 0 0 0 .041.032.134.134 0 0 0 .022.018l.063.05v.002c.022.019.045.034.063.053h.004c.018.018.041.033.061.049h.002c.23.184.46.361.695.533l6.972-9.403c-.537-.41-1.061-.85-1.544-1.319zm2.104 1.702l-6.567 9.694a27.39 27.39 0 0 0 3.025 1.779l5.283-10.449a15.352 15.352 0 0 1-1.741-1.024zm2.348 1.316l-4.83 10.667c.002 0 .004.003.007.003.004.002.009.002.009.004a.03.03 0 0 0 .013.005c.005.002.007.002.009.005.016.007.032.013.045.02.005.003.005.005.009.005.004.005.009.005.014.007 0 0 .004.002.009.002l.014.007h.002c.012.005.021.012.03.016.004 0 .004 0 .009.003l.014.007h.004c.007.004.011.004.018.009.014.005.022.011.034.016l.002.002c.009 0 .014.005.018.01h.004a.03.03 0 0 0 .018.004c0 .005 0 .005.002.005.018.005.034.014.052.022h.004c.005.005.012.005.018.009h.005c.016.01.034.016.049.022 0 0 .005.003.005.005.004 0 .009.002.018.005l.004.002.014.007h.004c.009.009.022.011.032.016l.004.002c.004 0 .009.005.014.01h.009c.004.004.009.004.014.007l.004.002.05.022.009.002c.005.003.009.003.014.007h.007c.016.009.034.014.047.022h.009c.005.005.009.005.014.01l.009.002.013.007h.005l.027.014.007.004c.004 0 .011.003.016.005l.007.002c.005.003.011.007.016.007l.004.003c.014.002.022.006.032.011 0 0 .002 0 .004.005.004 0 .009.004.014.004l.009.005c.004 0 .009.002.011.005l.011.004.012.005h.002l.032.014.009.004c.002 0 .007 0 .014.005.002 0 .004 0 .009.005l.013.004a.01.01 0 0 0 .009.005c.004.002.014.004.018.009.004 0 .009 0 .014.005.004 0 .009.004.011.004s.007.005.011.005c.004 0 .007 0 .011.005.004 0 .007.004.014.004.004 0 .007.005.011.005.007.004.014.004.018.009.004 0 .007 0 .009.002.007.003.011.003.016.007.002 0 .007 0 .009.005.007 0 .011 0 .016.005 0 0 .004 0 .006.004.007 0 .016.005.023.007.002.002.006.002.006.002.005.005.009.005.014.01h.011a.042.042 0 0 0 .016.009.01.01 0 0 1 .007.002.204.204 0 0 0 .022.009h.002c.007.003.016.007.023.007 0 .003.004.005.004.005.004 0 .014.005.021.005a1.17 1.17 0 0 0 .051.023c0 .004 0 .004.004.004s.014.005.018.007c.002.003.004.003.007.003a.158.158 0 0 1 .025.009c.007 0 .014.005.022.009h.002l.025.009c.009.005.018.01.024.01h.002c.016.009.032.014.05.022.58.221 1.169.424 1.77.604l3.428-11.193a17.672 17.672 0 0 1-1.88-.721zm2.529.894l-2.944 11.334c.587.151 1.184.287 1.786.399l.081.014h.003c.004.005.013.005.022.005h.004c.007.004.014.004.023.004.002 0 .002 0 .002.003.009.002.018.002.027.002a.047.047 0 0 0 .024.007c.005 0 .005 0 .007.002l.021.002.004.003.022.002h.003l.024.007h.007c.007 0 .012.005.019.005h.009l.016.004h.009c.005 0 .012.003.016.005.007 0 .012.002.019.005h.014c.007 0 .009 0 .011.002.005.002.01.002.014.002h.014c.005.005.005.005.009.005a.247.247 0 0 1 .05.009h.01c.006.002.009.002.013.002.005 0 .007.003.012.003l.016.002h.002c.021.007.039.009.062.012l.021.004h.002c.353.059.7.108 1.057.153l1.472-11.613a16.002 16.002 0 0 1-1.983-.384zm2.655.452l-.984 11.667h.009c.005 0 .009.003.014.003h.042c.002.004.004.004.009.004h.03c.007.003.012.003.021.005H46.143l.007.002h.012l.009.003.043.002h.007l.012.002h.03c.004 0 .007.003.009.003h.009l.045.002h.005c.005.005.009.005.014.005H46.373a.03.03 0 0 1 .013.002h.005l.031.002h.033c.002.002.004.002.009.002h.016c.007.003.012.003.016.003H46.532c.005.002.01.002.014.002h.007c.002.002.009.002.012.002h.041s.005.003.01.003c.007 0 .016 0 .022.002h.046c.005 0 .009 0 .014.005h.021l.031.002h.019c.002.002.006.002.006.002h.083c.004 0 .004.005.009.005H46.927c.014.002.029.005.045.005H47.019l.013.002h.032l.007.002h.074c.002.005.007.005.014.005h.076c.004 0 .007 0 .009.004H47.369c.005.005.014.005.021.005h.141c.004 0 .009.005.014.005H47.669l.01.002H47.733l.014.002H48.02c.004.005.004.005.007.005H48.617c.201-.005.399-.007.599-.014H49.343c.065-.005.131-.009.198-.009l-.487-11.699a17.093 17.093 0 0 1-2.093-.045zm4.719-.296c-.655.14-1.328.239-1.996.296l.979 11.667c.263-.022.524-.047.784-.078h.023c.021-.005.04-.005.061-.01h.023l.01-.002c.004-.002.009-.002.016-.002h.007c.009-.003.018-.003.026-.005h.024c.004-.005.009-.005.013-.005H51.676c.002-.002.007-.002.011-.002.007-.002.014-.002.021-.002h.007c.007-.005.014-.005.022-.005 0-.002.005-.002.007-.002.007 0 .012 0 .019-.002h.007l.022-.003.002-.002a.278.278 0 0 0 .052-.005h.005l.022-.004h.005c.026-.005.052-.01.078-.012h.003l.024-.002c.303-.041.599-.086.896-.136.009 0 .019 0 .027-.002a.349.349 0 0 0 .054-.012l.025-.002.004-.002.021-.003h.005a.68.68 0 0 1 .05-.009c.004-.002.007-.002.009-.002.004 0 .011 0 .016-.005h.012l.018-.004h.005c.009 0 .018-.003.024-.005h.007c.005-.002.012-.005.016-.005h.012l.014-.004h.014c.004 0 .007-.005.011-.005h.014s.002-.002.007-.002l.029-.007h.007c.005 0 .009-.003.016-.003l.007-.002c.007 0 .009-.002.019-.002h.004c.021-.007.038-.009.059-.012.253-.047.508-.099.759-.153L51.68 63.957zm2.564-.786c-.618.251-1.26.461-1.91.63l2.944 11.334c.32-.084.632-.169.948-.265.005-.004.014-.004.018-.004 0-.002.003-.002.005-.002a.578.578 0 0 1 .055-.017c.002 0 .004-.004.004-.004.005 0 .009 0 .014-.005h.009c.005 0 .01-.005.014-.005.005 0 .009-.004.012-.004.007 0 .016-.005.022-.005.004-.002.007-.004.011-.004.005 0 .01-.003.014-.005.003 0 .007 0 .012-.005.002 0 .007 0 .011-.002.005-.002.01-.002.014-.005.005 0 .005-.002.009-.002l.023-.007.007-.002c.006 0 .011-.005.016-.005l.009-.004c.007 0 .012-.003.018-.005h.005c.009-.005.019-.007.025-.009h.002c.009-.005.016-.005.022-.01h.007c.007-.004.011-.004.021-.006 0 0 0-.003.004-.003.005-.002.014-.004.022-.009l.027-.007v-.002c.009 0 .016-.005.025-.005h.002c.009-.004.016-.004.022-.009h.005c.016-.005.031-.014.05-.019h.004a.053.053 0 0 0 .022-.009c.027-.009.052-.014.077-.022 0 0 0-.002.002-.002.027-.007.052-.016.077-.025h.002c.32-.105.637-.217.955-.334h.002l.098-.036h.004l.075-.031c.009-.005.018-.005.026-.009.017-.005.034-.014.05-.019h.003a.048.048 0 0 1 .02-.009h.005c.016-.009.034-.014.05-.022.009 0 .016-.005.022-.01h.005a.26.26 0 0 1 .022-.009.216.216 0 0 1 .05-.018h.004a.138.138 0 0 1 .022-.01h.003c.016-.009.033-.016.047-.022h.005a.085.085 0 0 1 .022-.009c.018-.009.034-.014.052-.021 0-.002-.002 0 0-.002a.085.085 0 0 0 .022-.009h.005c.007-.005.014-.005.021-.01h.004c.014-.009.032-.013.046-.022h.006c.007 0 .012-.004.021-.007 0 0 0-.002.003-.002l-4.372-10.859zm2.402-1.21c-.573.353-1.172.671-1.781.948l4.829 10.665a27.774 27.774 0 0 0 1.49-.731l.074-.036v-.002c.022-.011.05-.024.072-.038.002 0 .002-.003.005-.003l.016-.006v-.005c.018-.007.034-.016.054-.027h.005a.055.055 0 0 1 .014-.009h.005c.016-.012.031-.019.047-.027l.007-.004c.005-.005.009-.005.014-.007.002-.003.004-.003.007-.005.016-.007.029-.016.045-.024.002 0 .005-.003.007-.005.005 0 .009-.005.014-.007l.007-.005c.016-.007.029-.016.043-.024.004 0 .009 0 .011-.002l.012-.007c.002-.005.007-.005.009-.007.005-.003.007-.005.014-.007 0 0 .005-.002.007-.005.007-.002.014-.009.022-.014.002 0 .007 0 .009-.004.003 0 .007-.005.012-.005l.009-.005c.005-.004.009-.004.012-.009.007 0 .009-.004.011-.004.005-.005.009-.005.016-.01a.015.015 0 0 0 .014-.009c.003 0 .007-.002.012-.005l.009-.004c.005-.005.007-.005.014-.009.002 0 .007-.005.011-.007.003 0 .007-.003.012-.005s.009-.007.016-.012c.005 0 .007-.002.012-.004.004 0 .007-.005.011-.005.003-.002.007-.004.007-.007l.016-.009c.003-.002.007-.002.007-.002.01-.005.014-.01.021-.012.003-.002.007-.002.007-.007l.016-.007.007-.004a.04.04 0 0 1 .019-.007c0-.005.004-.005.004-.007.007-.002.014-.007.022-.012 0 0 .003 0 .005-.002a.045.045 0 0 0 .016-.012c.003 0 .005 0 .007-.002.005-.002.014-.007.019-.007 0-.005 0-.005.004-.005l.022-.013c.005-.005.014-.01.021-.014.003 0 .003 0 .005-.003a.037.037 0 0 0 .018-.011h.005c.016-.009.029-.019.045-.027 0 0 .003 0 .003-.004a.063.063 0 0 0 .02-.01h.003c.016-.009.031-.021.045-.026 0 0 0-.003.005-.003.006-.007.013-.009.018-.011l.005-.005c.181-.104.358-.212.537-.32l-6.158-9.96zm2.172-1.612c-.506.447-1.048.867-1.603 1.242l6.565 9.696c.302-.205.6-.417.894-.634h.005c.004-.007.014-.012.018-.016 0 0 .002 0 .002-.003a.169.169 0 0 0 .043-.031l.005-.002a.075.075 0 0 0 .014-.012c.002 0 .005 0 .007-.005l.018-.013h.003l.018-.014.009-.007c.005-.003.01-.007.014-.007 0-.005.005-.005.005-.009.004-.005.009-.005.014-.01a.034.034 0 0 1 .018-.009c.003-.004.005-.007.009-.009 0-.005.005-.005.01-.009.004 0 .007-.005.009-.005l.009-.009c.003-.003.005-.005.009-.005a.18.18 0 0 1 .043-.031l.003-.005a.042.042 0 0 1 .014-.009l.004-.005c.542-.41 1.07-.842 1.581-1.291l-7.74-8.788zm1.874-1.953a16.17 16.17 0 0 1-1.373 1.494l8.104 8.455v-.005a27.304 27.304 0 0 0 1.792-1.887h.003a.264.264 0 0 1 .036-.041c.004-.009.009-.014.013-.021l.005-.002c.005-.005.009-.012.014-.019 0 0 0-.002.002-.002.007-.007.012-.011.016-.021.003 0 .005-.002.005-.004.005-.003.009-.01.014-.014 0 0 .005-.005.005-.007.004-.002.009-.009.009-.012.004-.004.007-.004.009-.009l.014-.014c0-.004.005-.009.005-.009.004-.005.006-.009.011-.012a.07.07 0 0 0 .007-.009c.002-.002.005-.007.009-.009 0-.002.005-.007.01-.012 0 0 .004-.004.006-.009a.052.052 0 0 0 .017-.016c0-.005.002-.005.004-.007.003-.005.01-.009.012-.014.002 0 .002-.002.002-.002.122-.145.239-.289.361-.436l-9.112-7.356zm1.515-2.235a15.695 15.695 0 0 1-1.1 1.7l9.408 6.967c.485-.65.941-1.327 1.366-2.019v-.004c.013-.022.026-.043.043-.068l.002-.002.009-.021.002-.002a.214.214 0 0 0 .027-.043l.002-.005a.075.075 0 0 1 .014-.018v-.005l.014-.022h.003c.002-.009.006-.014.011-.022 0 0 .002-.005.005-.007l.007-.014c.002-.002.004-.004.004-.007.003-.007.007-.011.012-.016.002-.005.004-.011.007-.014a.067.067 0 0 1 .007-.011l.007-.014.007-.009c0-.003.004-.007.006-.01.003-.004.003-.004.003-.009.007-.009.014-.018.018-.027h.003a.045.045 0 0 1 .007-.018l.004-.005c.005-.004.005-.009.009-.014v-.002c.012-.019.023-.034.032-.052v-.003c.097-.164.188-.322.279-.487l-10.218-5.717zm1.108-2.446a15.417 15.417 0 0 1-.79 1.85l10.449 5.281.203-.406c.002-.007.004-.014.007-.019.002-.004.002-.004.004-.004l.022-.05.005-.007c0-.002.002-.012.005-.012l.004-.014c.002 0 .005-.004.007-.009 0-.004.005-.014.007-.018 0 0 .005-.005.005-.01.002-.004.007-.009.009-.018 0-.002.002-.002.002-.005.005-.007.005-.011.009-.018 0 0 0-.005.003-.005.007-.018.016-.031.021-.047 0-.003 0-.003.004-.003 0-.007.005-.013.009-.022.394-.835.745-1.688 1.055-2.564l-11.04-3.9zm.676-2.599c-.115.661-.27 1.32-.463 1.958L74.722 56.5c.203-.657.379-1.326.533-2.008a.127.127 0 0 0 .004-.026l.014-.055c.005-.009.005-.018.005-.023v-.004c.004-.01.004-.018.007-.025h.002c.005-.018.005-.035.009-.054v-.003c.004-.007.004-.014.004-.022.002-.002.002-.004.002-.005.002-.017.007-.034.012-.051v-.003c.002-.009.004-.015.004-.021l.005-.007c0-.006 0-.014.002-.019 0-.004.003-.005.003-.006 0-.009 0-.017.004-.026v-.001a.05.05 0 0 1 .005-.021v-.008a.258.258 0 0 1 .007-.021l.002-.005c0-.009 0-.016.005-.022v-.004c0-.007 0-.015.004-.023v-.008c0-.005.003-.011.005-.018v-.008c0-.005.005-.014.007-.02l.002-.005c0-.008 0-.018.005-.023v-.007c0-.007 0-.012.004-.019v-.008c0-.006.003-.012.005-.018v-.009a.05.05 0 0 1 .005-.02l.002-.004c0-.01.002-.017.005-.025v-.008c.002-.006.002-.013.004-.017.003-.003.003-.005.003-.008 0-.007 0-.012.002-.018.002-.003.002-.005.002-.009 0-.008.002-.015.005-.022v-.006c.002-.007.004-.012.004-.019 0-.004 0-.009.003-.011.002-.004.002-.01.002-.016 0-.002 0-.006.005-.009v-.025c.004-.01.004-.017.007-.025.002-.001.002-.004.002-.007 0-.006 0-.01.005-.017v-.011c0-.004 0-.009.004-.015v-.01c.002-.006.002-.013.005-.02v-.01a.06.06 0 0 0 .004-.02v-.007c.005-.007.005-.013.005-.017 0-.004 0-.006.002-.011.003-.005.003-.011.003-.016 0-.002 0-.007.002-.008a.101.101 0 0 0 .002-.024c.005-.001.005-.006.005-.007l.002-.019.003-.009c0-.005 0-.01.002-.017 0-.003 0-.005.002-.007.005-.016.005-.034.009-.049v-.009c0-.006.003-.012.005-.018v-.009c0-.006.002-.014.005-.021v-.003a.138.138 0 0 0 .004-.026l.003-.002a.09.09 0 0 0 .002-.022c0-.002 0-.004.002-.007.003-.007.003-.015.003-.021 0-.002 0-.004.002-.006l.007-.051.002-.004c.002-.007.002-.015.005-.022v-.005l.007-.023c0-.011 0-.02.002-.028l-11.547-1.958zm.228-2.7c0 .681-.043 1.365-.129 2.033l11.616 1.473c.1-.807.169-1.624.198-2.449.005-.039.005-.074.005-.111.002-.009.002-.02.002-.026v-.001c.003-.029.003-.056.003-.083V49.223c.002-.026.002-.056.002-.082l.002-.001v-.139c.003-.007.003-.015.003-.023v-.03l.002-.024v-.219c0-.004 0-.004.005-.009V48.419l-11.709-.003zm11.315-4.664l-11.543 1.963c.112.66.185 1.338.214 2.015l11.695-.487a27.553 27.553 0 0 0-.1-1.476v-.003c0-.007 0-.012-.002-.021v-.003c-.003-.005-.003-.012-.003-.018v-.001a.347.347 0 0 0-.004-.042v-.001c0-.005 0-.011-.003-.017v-.009l-.002-.015v-.024c-.004-.005-.004-.01-.004-.016v-.032c0-.003-.005-.008-.005-.009V45.53c0-.007 0-.011-.005-.016v-.033l-.002-.007-.002-.019v-.009c-.003-.005-.003-.01-.005-.018V45.4l-.002-.003c-.003-.018-.003-.036-.005-.052v-.006c-.002-.007-.002-.015-.002-.023v-.002a.426.426 0 0 1-.009-.08 26.755 26.755 0 0 0-.211-1.482zm-1.176-4.532l-11.04 3.898c.223.63.406 1.281.548 1.934l11.447-2.454a27.38 27.38 0 0 0-.16-.701c-.007-.027-.012-.052-.021-.078v-.006a.043.043 0 0 1-.005-.021l-.002-.003a.437.437 0 0 0-.012-.049c0-.002-.004-.002-.004-.006 0-.007 0-.014-.005-.019v-.007c0-.008-.005-.015-.005-.021v-.003c-.004-.01-.004-.017-.009-.024v-.006c0-.008-.004-.012-.004-.019 0-.003 0-.006-.003-.009-.002-.005-.002-.01-.002-.017 0-.002-.005-.005-.005-.005 0-.009-.004-.018-.004-.023v-.003c-.005-.01-.005-.017-.01-.024v-.009a.042.042 0 0 0-.004-.015v-.008c-.005-.007-.005-.013-.005-.018l-.004-.008c0-.006-.003-.015-.005-.023 0-.003-.005-.004-.005-.008 0-.005 0-.01-.004-.016v-.009a.027.027 0 0 1-.005-.015c0-.002 0-.007-.002-.01-.003-.006-.003-.01-.003-.015-.004-.008-.004-.011-.004-.018-.005-.004-.005-.008-.005-.013-.004-.005-.004-.01-.004-.012 0-.003-.003-.008-.005-.011v-.015a.014.014 0 0 1-.005-.008.155.155 0 0 1-.004-.029c-.003-.001-.003-.003-.005-.006-.002-.004-.002-.008-.002-.012l-.005-.01-.002-.015c0-.003-.005-.007-.005-.011 0-.002 0-.007-.002-.012-.002-.004-.002-.008-.002-.012l-.007-.021c-.003-.003-.003-.007-.003-.011 0-.006-.004-.008-.004-.014 0 0 0-.005-.003-.009a.037.037 0 0 0-.004-.014c0-.004-.003-.007-.003-.009-.002-.01-.004-.021-.009-.033v-.002c0-.004-.004-.01-.004-.015 0-.003 0-.004-.003-.008l-.002-.015a.012.012 0 0 0-.005-.009c0-.004 0-.009-.004-.015v-.007c-.005-.008-.005-.019-.01-.028v-.009c0-.003-.004-.008-.004-.014 0-.001 0-.007-.005-.008 0-.006 0-.011-.002-.015-.002-.002-.002-.007-.002-.009-.005-.009-.007-.021-.01-.03v-.004a.042.042 0 0 1-.004-.015c0-.002-.003-.005-.003-.008a.037.037 0 0 1-.004-.015c0-.003-.003-.005-.003-.009-.004-.004-.004-.009-.004-.015l-.003-.004c-.002-.012-.006-.02-.006-.031l-.005-.008c0-.004 0-.009-.002-.014-.003-.003-.003-.005-.005-.009l-.002-.014c-.003-.003-.005-.006-.005-.009l-.007-.028-.002-.006a.033.033 0 0 0-.005-.016l-.002-.008c-.002-.007-.002-.011-.005-.016 0-.001 0-.004-.002-.007l-.014-.049c-.002-.005-.002-.006-.005-.009 0-.003 0-.009-.002-.014-.002-.003-.002-.006-.002-.009a.04.04 0 0 1-.005-.014c0-.004-.004-.007-.004-.009 0-.008-.005-.017-.005-.026-.005-.003-.005-.005-.005-.008 0-.008 0-.01-.004-.015 0-.003 0-.007-.003-.01-.002-.004-.002-.009-.002-.012l-.005-.01-.013-.048c0-.002 0-.006-.005-.009l-.002-.012c-.003-.003-.003-.007-.003-.009-.002-.006-.004-.009-.004-.015-.003-.003-.005-.004-.005-.008 0-.008-.005-.018-.007-.027l-.002-.009a.034.034 0 0 0-.005-.014v-.006l-.009-.015v-.012a.098.098 0 0 1-.009-.029v-.003c-.005-.005-.005-.009-.005-.015-.002-.003-.005-.005-.005-.008l-.004-.015c-.002-.002-.002-.006-.005-.009 0-.005 0-.008-.004-.014v-.009c-.005-.008-.005-.019-.01-.025-.002-.003-.002-.008-.002-.008-.002-.005-.005-.011-.005-.015-.002-.003-.002-.005-.002-.01-.005-.004-.005-.009-.005-.013l-.004-.007c-.005-.017-.009-.034-.016-.052v-.004l-.007-.017v-.005c-.01-.019-.014-.04-.019-.059a.096.096 0 0 0-.007-.018v-.004a.077.077 0 0 0-.007-.016v-.003c-.009-.018-.013-.039-.018-.058l-.002-.002c-.003-.007-.003-.012-.007-.019v.001c-.007-.026-.019-.053-.027-.08a6.943 6.943 0 0 0-.183-.58zm-1.93-4.268l-10.219 5.719c.33.586.621 1.198.872 1.817l10.864-4.369a29.63 29.63 0 0 0-.366-.861v-.001c-.004-.008-.009-.017-.011-.024v-.002c-.007-.016-.017-.031-.023-.048v-.001a.1.1 0 0 0-.011-.024v-.001c-.009-.017-.014-.034-.022-.05v-.002c-.003-.008-.009-.015-.012-.02l-.002-.006a.078.078 0 0 0-.009-.021c0-.002 0 0 0 0-.003-.009-.01-.016-.014-.027 0-.007-.005-.014-.009-.021v-.004c-.005-.006-.01-.015-.01-.021l-.004-.003c0-.007-.005-.016-.01-.023v-.001c-.004-.007-.006-.015-.009-.022l-.004-.004c-.003-.007-.005-.013-.01-.017v-.005a.49.49 0 0 1-.022-.048c0-.002 0-.003-.002-.005-.002-.007-.007-.013-.007-.017-.002-.003-.005-.005-.005-.008-.002-.004-.004-.011-.009-.019v-.002l-.014-.022v-.006a.06.06 0 0 1-.009-.018l-.002-.007c-.007-.005-.007-.011-.012-.018v-.003a.22.22 0 0 1-.011-.022c0-.002-.003-.004-.003-.007-.004-.005-.004-.011-.009-.016v-.009c-.005-.006-.009-.01-.012-.017 0 0-.002-.002-.002-.006-.005-.008-.007-.015-.009-.022l-.001-.008c0-.008-.004-.013-.004-.018-.005-.004-.005-.006-.005-.009a.023.023 0 0 1-.009-.018l-.005-.004a.178.178 0 0 0-.009-.023v-.001a.113.113 0 0 1-.012-.021l-.002-.005-.009-.018c0-.001 0-.003-.005-.006-.005-.015-.014-.029-.021-.046l-.002-.003c-.005-.006-.005-.013-.009-.019 0-.001 0-.004-.003-.005l-.009-.021-.002-.001a.179.179 0 0 1-.012-.024l-.002-.004-.009-.019c0-.001-.005-.005-.005-.007l-.007-.017c-.002-.002-.002-.002-.002-.006-.005-.006-.007-.013-.012-.021l-.002-.004a.154.154 0 0 0-.009-.019v-.004l-.014-.02v-.004c-.009-.014-.014-.03-.022-.045 0 0 0-.005-.003-.006-.002-.005-.004-.012-.009-.018l-.002-.004c-.009-.016-.016-.033-.022-.047l-.003-.002-.011-.02v-.006c-.009-.014-.019-.029-.025-.045l-.002-.002a.056.056 0 0 0-.009-.021v-.004c-.007-.007-.009-.015-.014-.024-.005-.006-.007-.015-.014-.023-.002-.007-.004-.016-.009-.022v-.005c-.007-.005-.009-.013-.014-.02v-.001c-.009-.017-.018-.031-.022-.048l-.005-.001c-.002-.008-.007-.016-.009-.022v-.001c-.009-.017-.018-.032-.024-.046 0-.002-.003-.002-.003-.005l-.011-.018c0-.002 0-.004-.003-.004-.006-.015-.016-.031-.022-.045 0-.002 0-.003-.002-.004a.052.052 0 0 0-.012-.018l-.002-.006-.022-.046s-.002-.001-.002-.003c-.005-.006-.005-.011-.01-.02l-.002-.004a.072.072 0 0 0-.011-.019v-.003l-.014-.021v-.004c-.005-.006-.007-.013-.01-.018-.004-.003-.004-.003-.004-.007-.005-.006-.007-.013-.012-.018l-.002-.003c-.002-.009-.007-.016-.009-.022-.003-.001-.003-.002-.003-.003-.004-.007-.009-.014-.011-.02l-.005-.005c0-.008-.004-.013-.007-.017l-.002-.005c-.007-.008-.009-.015-.014-.023l-.002-.001-.007-.021c-.005-.002-.007-.005-.007-.008a.05.05 0 0 0-.009-.013l-.003-.009c-.004-.004-.004-.009-.009-.014-.002-.005-.004-.005-.004-.01-.005-.005-.005-.011-.01-.018-.002-.004-.004-.008-.007-.009-.002-.006-.002-.008-.007-.011 0-.004 0-.008-.004-.011 0-.005-.005-.007-.005-.01-.004-.006-.004-.01-.009-.015l-.009-.017c0-.002-.005-.007-.005-.01-.002-.003-.005-.006-.005-.01-.004-.005-.004-.008-.009-.013l-.004-.007c-.007-.017-.017-.031-.023-.048 0 0-.004-.001-.004-.004 0-.005-.005-.009-.007-.015l-.005-.005c-.028-.086-.071-.161-.114-.238zm-2.623-3.876l-9.108 7.359c.423.524.817 1.082 1.172 1.652l9.964-6.147a.269.269 0 0 1-.014-.022l-.002-.002a.094.094 0 0 0-.012-.018s-.002-.002-.002-.006c-.007-.006-.007-.012-.012-.021-.004-.001 0 0 0 0a.094.094 0 0 1-.016-.023c-.002-.001-.002-.002-.002-.004l-.012-.015-.005-.007a.14.14 0 0 0-.009-.017l-.002-.005c-.005-.006-.012-.013-.014-.021-.002-.002-.005-.005-.005-.007-.004-.004-.004-.009-.009-.012-.002-.004-.004-.007-.004-.01-.005-.004-.005-.008-.01-.012l-.004-.008-.014-.018c0-.005-.003-.007-.005-.01l-.007-.011c-.002-.005-.007-.008-.007-.01-.004-.003-.004-.007-.009-.01 0-.004-.005-.008-.005-.012-.004-.005-.009-.009-.013-.017 0-.003-.005-.006-.005-.01 0-.002-.005-.005-.005-.01-.004-.003-.007-.005-.009-.01-.002-.003-.005-.005-.005-.008l-.026-.043c-.003-.004-.005-.004-.005-.008-.005-.004-.005-.008-.009-.012 0-.001-.003-.007-.005-.007-.009-.015-.018-.032-.029-.045l-.002-.004c-.002-.004-.005-.01-.009-.012 0-.002-.003-.006-.005-.008-.009-.015-.021-.029-.029-.046 0 0-.002-.001-.002-.003-.003-.004-.005-.009-.01-.014 0-.002-.004-.002-.004-.005a.395.395 0 0 1-.029-.049h-.003c-.004-.007-.004-.011-.009-.016-.002-.002-.002-.003-.005-.004l-.04-.066-.005-.003c-.014-.023-.027-.045-.043-.067l-.002-.002c-.005-.006-.007-.012-.009-.016-.014-.018-.022-.034-.034-.051l-.002-.002a.024.024 0 0 1-.009-.017l-.005-.001-.029-.047c-.002-.002-.002-.003-.005-.003-.002-.005-.004-.01-.009-.016l-.002-.003-.032-.045c0-.002-.002-.005-.004-.006 0-.004-.005-.009-.007-.014-.003-.003-.003-.004-.005-.004a.274.274 0 0 1-.029-.046l-.005-.004c-.004-.003-.004-.008-.009-.015v-.003c-.014-.015-.022-.029-.033-.045-.003-.002-.003-.002-.003-.005-.004-.003-.007-.01-.009-.016-.002 0-.002-.001-.005-.003l-.031-.044-.002-.006c-.005-.003-.007-.008-.01-.013l-.007-.006c0-.003-.004-.008-.006-.012-.003-.003-.003-.005-.003-.005a.093.093 0 0 1-.018-.026.008.008 0 0 1-.005-.007l-.009-.012c-.005-.002-.005-.003-.005-.006a.047.047 0 0 1-.009-.012l-.002-.004c-.007-.009-.012-.017-.021-.026 0-.002 0-.003-.005-.006 0-.003-.004-.008-.007-.013-.002-.002-.002-.005-.002-.005-.005-.006-.009-.009-.012-.015 0-.002-.002-.002-.002-.006-.009-.008-.011-.012-.016-.021l-.007-.009a.04.04 0 0 0-.009-.01c0-.003-.005-.007-.005-.011a.036.036 0 0 1-.009-.009c0-.002-.002-.006-.007-.01-.002-.007-.007-.01-.012-.018a.055.055 0 0 0-.007-.009l-.009-.01c-.002-.003-.002-.006-.007-.009 0-.003-.004-.008-.004-.01-.005-.003-.01-.008-.01-.012-.004-.002-.007-.008-.009-.009a.126.126 0 0 0-.011-.017c-.003-.002-.005-.005-.007-.01 0-.002-.005-.007-.005-.01-.005-.003-.007-.006-.009-.009-.005-.003-.005-.009-.009-.011 0-.003-.005-.005-.005-.009a.282.282 0 0 1-.014-.018c0-.003-.005-.004-.007-.008l-.007-.012c-.002-.003-.004-.006-.009-.009 0-.004-.005-.009-.007-.014-.002-.001-.005-.004-.005-.007-.004-.007-.011-.012-.016-.019l-.004-.007c-.003-.005-.005-.009-.01-.012a.015.015 0 0 1-.004-.009c-.005-.004-.007-.009-.01-.011-.004-.004-.004-.005-.004-.008a.064.064 0 0 1-.016-.019c-.003-.002-.003-.005-.005-.005-.002-.006-.007-.011-.012-.016l-.004-.007c-.005-.004-.005-.01-.009-.015l-.005-.005-.014-.021c-.005-.001-.005-.001-.005-.003-.004-.004-.009-.011-.009-.016-.004-.002-.007-.006-.007-.007-.002-.003-.007-.008-.009-.014-.002-.002-.007-.006-.007-.008-.005-.006-.009-.014-.014-.019 0-.001-.002-.001-.002-.003-.005-.005-.009-.009-.012-.016 0 0-.004-.004-.004-.008-.005-.003-.007-.008-.014-.014 0-.001-.002-.004-.005-.005l-.014-.021-.002-.001c-.002-.006-.007-.011-.012-.019-.002-.002-.004-.002-.004-.005a.061.061 0 0 1-.012-.016s-.002-.003-.007-.004l-.026-.041-.005-.005a.043.043 0 0 1-.012-.017c-.002 0-.002-.002-.002-.002a.565.565 0 0 1-.031-.042l-.005-.004c-.005-.004-.007-.011-.009-.015-.005-.003-.005-.005-.005-.008-.009-.006-.011-.012-.016-.018h-.002a.173.173 0 0 0-.014-.02c-.002-.002-.005-.004-.005-.007a.06.06 0 0 1-.009-.015.015.015 0 0 1-.007-.007l-.011-.015c-.003-.001-.003-.002-.005-.004-.005-.005-.009-.014-.014-.019l-.005-.006c-.002-.004-.009-.01-.009-.015-.004-.001-.004-.005-.004-.005l-.014-.017-.003-.002a.233.233 0 0 1-.016-.02l-.004-.006c-.005-.005-.01-.01-.012-.015-.002-.001-.002-.004-.005-.005-.002-.007-.007-.012-.011-.017-.003 0-.005-.001-.005-.004l-.014-.018c0-.002-.004-.003-.007-.006-.002-.005-.007-.01-.009-.014-.002-.004-.002-.005-.007-.007l-.009-.015c0-.002-.002-.003-.005-.005a.133.133 0 0 0-.014-.019c-.004-.001-.004-.005-.004-.006l-.014-.015c0-.001 0-.004-.005-.006-.004-.004-.004-.01-.009-.013 0-.003-.005-.005-.005-.008a.21.21 0 0 0-.016-.018c-.002-.001-.002-.004-.002-.004l-.014-.015c-.002-.002-.005-.004-.005-.007l-.009-.012c-.002-.003-.004-.004-.004-.008a.05.05 0 0 1-.014-.015c-.005-.003-.005-.007-.01-.013l-.009-.01a.037.037 0 0 0-.009-.009c0-.004-.005-.006-.005-.01a.02.02 0 0 1-.009-.009l-.009-.012-.014-.016a.028.028 0 0 0-.005-.009c-.002-.003-.004-.008-.009-.01 0-.002-.005-.004-.005-.009-.004-.001-.009-.007-.009-.01-.004-.001-.004-.005-.004-.007-.01-.007-.014-.016-.021-.024-.003-.001-.003-.002-.003-.003a.179.179 0 0 1-.013-.014c0-.001 0-.003-.003-.003l-.011-.016v-.002l-.039-.044c0-.002-.002-.002-.002-.002.001-.044-.028-.08-.059-.12zm-3.243-3.38l-7.739 8.784c.505.447.988.929 1.436 1.435l8.787-7.738c-.14-.158-.28-.312-.425-.467-.016-.019-.036-.04-.054-.059 0-.001-.003-.002-.003-.005a.112.112 0 0 1-.013-.016l-.007-.002c-.005-.005-.01-.015-.014-.02-.003 0-.003 0-.005-.002l-.014-.015c0-.002-.004-.004-.004-.005l-.014-.01c0-.003-.005-.008-.005-.01l-.014-.011a.042.042 0 0 1-.009-.014.017.017 0 0 1-.009-.007c-.005-.003-.007-.007-.009-.01l-.007-.008c-.005-.003-.007-.007-.012-.009 0-.002-.002-.006-.005-.007-.007-.007-.013-.015-.022-.022 0 0 0-.003-.002-.003-.002-.005-.007-.008-.012-.013l-.004-.005a.548.548 0 0 1-.041-.042l-.014-.012v-.005l-.059-.057v-.001a19.965 19.965 0 0 0-.521-.53.05.05 0 0 0-.014-.015h-.002l-.041-.043-.002-.001a.045.045 0 0 0-.012-.012c-.004-.002-.004-.002-.004-.004-.014-.011-.027-.025-.041-.039 0 0 0-.002-.004-.004l-.01-.01c0-.002-.004-.003-.007-.004l-.011-.013-.005-.004a.044.044 0 0 1-.018-.018c-.005-.002-.005-.005-.009-.007-.003-.003-.007-.008-.01-.009-.004-.004-.004-.007-.009-.009l-.009-.008c-.003-.004-.007-.005-.009-.01l-.014-.013a.03.03 0 0 1-.01-.009c-.002-.002-.004-.005-.009-.008-.004-.002-.009-.007-.009-.01-.005-.002-.005-.004-.009-.007a.093.093 0 0 1-.014-.014c-.003-.004-.005-.004-.005-.006-.004-.005-.011-.008-.016-.013l-.007-.008a.03.03 0 0 0-.012-.01l-.006-.004a.306.306 0 0 0-.036-.036l-.005-.003-.014-.016-.005-.001-.036-.036h-.002l-.018-.019-.003-.002a13.804 13.804 0 0 0-.739-.689zm-3.761-2.787l-6.149 9.962c.57.354 1.128.748 1.652 1.169l7.362-9.104c-.353-.283-.711-.56-1.077-.826 0-.002-.002-.002-.004-.002l-.012-.01-.007-.004c-.014-.01-.027-.019-.041-.031 0-.002-.006-.004-.009-.005-.004-.002-.004-.004-.009-.008-.005-.001-.007-.003-.012-.006a.017.017 0 0 0-.009-.007c-.007-.004-.011-.01-.018-.013l-.007-.006-.014-.009-.007-.005c-.005-.002-.012-.008-.016-.011-.003-.003-.005-.003-.005-.003l-.022-.016c-.007-.005-.014-.009-.019-.015l-.004-.002c-.005-.006-.014-.01-.021-.015h-.002c-.5-.363-1.02-.707-1.55-1.033zm-4.179-2.114l-4.371 10.861c.618.25 1.23.543 1.817.873l5.719-10.219-.007-.004-.014-.004c0-.004-.004-.004-.009-.004-.005-.005-.009-.007-.012-.009l-.009-.005c-.007-.002-.011-.003-.016-.008l-.014-.008c-.004-.002-.007-.003-.011-.007l-.012-.005-.011-.006-.01-.007-.014-.005-.016-.009-.011-.007-.012-.005c-.005-.001-.005-.004-.011-.006l-.012-.008c-.002-.001-.007-.002-.009-.005a.035.035 0 0 1-.014-.006c-.005-.002-.009-.008-.019-.01-.002-.002-.004-.003-.009-.004-.002-.003-.004-.004-.009-.007a.023.023 0 0 1-.014-.007l-.012-.005c-.002-.002-.007-.002-.009-.005-.007-.003-.014-.006-.021-.012l-.009-.003c-.002-.002-.009-.004-.011-.007a.04.04 0 0 1-.012-.007.024.024 0 0 1-.012-.005c-.002 0-.006-.002-.009-.006a.06.06 0 0 1-.016-.007l-.016-.01a.018.018 0 0 1-.009-.004l-.012-.005c-.005-.001-.007-.005-.012-.006-.002-.002-.006-.003-.009-.007-.007 0-.011-.003-.014-.005a.042.042 0 0 1-.016-.009.018.018 0 0 1-.011-.004c-.005-.003-.01-.007-.012-.007-.005-.002-.009-.004-.011-.007l-.012-.004a.067.067 0 0 1-.012-.006c-.004-.005-.011-.006-.016-.01l-.014-.007c-.004-.001-.009-.003-.009-.005-.005-.002-.009-.005-.014-.006l-.009-.006c-.005-.003-.009-.003-.012-.007a.049.049 0 0 1-.011-.004l-.019-.01-.009-.005-.014-.005c-.004-.003-.009-.004-.009-.007l-.014-.005c-.005-.002-.005-.003-.009-.006l-.019-.009a.037.037 0 0 0-.014-.007c0-.002-.004-.003-.009-.004-.004-.003-.009-.003-.014-.007 0-.002-.004-.003-.009-.004a.028.028 0 0 0-.009-.007c-.005-.002-.009-.003-.014-.007-.007-.002-.012-.006-.018-.009-.005-.002-.01-.003-.01-.005-.004-.002-.009-.002-.014-.006-.004-.002-.004-.003-.009-.004-.004-.003-.007-.003-.014-.006l-.014-.008-.013-.007-.014-.006-.01-.006c-.004-.003-.009-.004-.013-.006 0-.003-.005-.003-.01-.004l-.014-.008c-.002 0-.004-.004-.009-.006a.151.151 0 0 1-.018-.009.023.023 0 0 1-.01-.004l-.013-.007a.024.024 0 0 1-.01-.006l-.014-.007-.009-.003a.059.059 0 0 0-.021-.01c-.002-.003-.007-.003-.007-.005l-.016-.008-.007-.003-.016-.008-.007-.003c-.009-.004-.014-.007-.022-.009-.002-.001-.005-.006-.009-.006-.002-.003-.009-.004-.012-.008l-.011-.003-.014-.007c0-.001-.005-.004-.009-.004l-.019-.01-.007-.003c-.007-.001-.011-.005-.016-.009-.005 0-.005-.002-.009-.002-.005-.003-.01-.007-.014-.008-.005-.001-.005-.003-.009-.004l-.019-.008-.004-.002c-.007-.005-.014-.007-.023-.01 0-.002-.004-.003-.004-.006a.114.114 0 0 1-.019-.007c0-.001-.004-.001-.004-.004-.007-.002-.014-.004-.019-.007l-.007-.002a.07.07 0 0 0-.021-.011c-.004-.002-.004-.003-.007-.003l-.016-.008-.009-.003c-.005-.003-.009-.007-.016-.009l-.005-.002c-.007-.003-.016-.008-.024-.01 0 0 0-.002-.003-.002a.075.075 0 0 0-.02-.01l-.005-.002c-.007-.002-.014-.007-.018-.008l-.007-.004c-.014-.005-.029-.014-.046-.02l-.002-.002-.022-.01-.002-.001c-.017-.008-.032-.016-.048-.022l-.002-.001a.072.072 0 0 1-.021-.012l-.005-.001c-.018-.007-.031-.014-.049-.023-.007-.003-.014-.008-.023-.009 0-.002 0-.002-.002-.002l-.074-.035a13.823 13.823 0 0 0-1.379-.627zm-4.477-1.372l-2.461 11.449c.655.14 1.308.325 1.938.546l3.901-11.038c-.169-.06-.339-.117-.508-.175a.053.053 0 0 1-.019-.006l-.002-.001-.019-.004c-.002-.003-.002-.003-.004-.003l-.032-.01-.006-.001-.017-.005-.007-.002c-.004-.002-.009-.006-.013-.006a.037.037 0 0 0-.012-.002c-.002-.002-.009-.003-.012-.004a.143.143 0 0 1-.022-.008l-.011-.001a.024.024 0 0 0-.012-.007.03.03 0 0 0-.011-.002l-.014-.004-.009-.002a.119.119 0 0 0-.023-.007s0-.002-.004-.003c-.005 0-.009-.005-.019-.006l-.009-.003-.016-.004-.007-.002-.022-.005-.003-.001-.024-.01h-.002l-.022-.005-.007-.002c-.005-.002-.014-.003-.021-.007l-.002-.001c-.014-.007-.032-.011-.05-.016h-.003a.169.169 0 0 0-.024-.008l-.081-.025v-.001l-.181-.054-.186-.055c-.024-.007-.05-.015-.076-.02-.027-.01-.055-.017-.082-.025l-.022-.008h-.004l-.077-.022h-.002c-.007-.003-.016-.004-.025-.005-.018-.007-.033-.011-.05-.016l-.004-.001c-.009-.001-.016-.004-.022-.006h-.005c-.009-.003-.016-.004-.022-.009-.012-.001-.019-.004-.027-.006h-.004l-.021-.006-.007-.002c-.005-.002-.014-.002-.019-.006h-.007l-.047-.013-.005-.002a.25.25 0 0 0-.021-.004c-.002-.002-.004-.002-.009-.002l-.018-.005c-.003-.002-.005-.002-.007-.002-.007-.001-.014-.004-.022-.004l-.007-.002c-.005-.002-.012-.002-.017-.005l-.011-.002c-.002-.002-.007-.002-.012-.003l-.013-.003-.019-.004-.014-.002-.014-.004-.011-.004c-.005 0-.007 0-.012-.002-.004-.002-.009-.002-.014-.003-.002 0-.007-.001-.009-.003a.256.256 0 0 1-.027-.005l-.009-.002-.012-.003c-.002-.002-.006-.002-.011-.002-.005 0-.009-.004-.014-.004-.005 0-.005-.001-.009-.002l-.014-.003c-.014-.005-.025-.006-.038-.009l-.005-.001c-.007-.002-.012-.002-.018-.006l-.005-.001c-.007-.001-.012-.003-.019-.003 0-.002 0-.002-.002-.002-.018-.004-.041-.009-.059-.016h-.002c-.007 0-.012-.002-.021-.004a10.045 10.045 0 0 0-.919-.235zm-4.647-.59l-.492 11.698c.678.029 1.357.101 2.019.213l1.965-11.542a27.77 27.77 0 0 0-3.492-.369zm-1.174-.024l-.004 11.709.004-11.709zm0 0l-.002 11.709.002-11.709zM48.322 48.416l-12.253 3.98c-2.199-6.767 1.503-14.035 8.272-16.234 6.765-2.198 14.034 1.505 16.23 8.272 2.2 6.766-1.504 14.034-8.269 16.232-1.354.44-2.558.63-3.982.63l.002-12.88z"/></g></svg>