<svg width="116" height="105" viewBox="0 0 116 105" xmlns="http://www.w3.org/2000/svg"><title>Shape</title><path d="M97.137 98.471V25.783L54.756 3.404v8.865l36.896 19.268v8.798L18.896 2v8.797l35.86 18.833v8.798L18.93 19.629v78.842H1v4.718h114V98.47H97.137zM73.455 56.58h8.463v3.847h-8.463V56.58zm0 7.66h8.463v3.848h-8.463v-3.847zm0 7.76h8.463v3.88h-8.463V72zm0 7.894h8.463v3.847h-8.463v-3.847zM51.143 61.497h8.496v3.846h-8.496v-3.846zm0 7.66h8.496v3.847h-8.496v-3.847zm0 7.762h8.496v3.879h-8.496v-3.88zm0 7.894h8.496v3.846h-8.496v-3.846zm-22.278-13.56v-3.879h8.496v3.879h-8.496zm8.496 4.015v3.846h-8.496v-3.846h8.496zm-8.496-11.775v-3.847h8.496v3.847h-8.496zm0-7.66v-3.88h8.496v3.88h-8.496zm13.681 28.633H28.865v-1.74h11.942V47.872H28.865V46.1h13.681v38.367zm22.312 9.546H51.143v-1.739h11.941V57.415H51.143v-1.772h13.715v38.369zm22.278-3.918H73.455V88.32h11.941V53.499H73.455v-1.774h13.681v38.369z" stroke="#FFF" stroke-width="2" fill="none" fill-rule="evenodd"/></svg>