<svg width="91" height="80" viewBox="0 0 91 80" xmlns="http://www.w3.org/2000/svg"><title>Shape</title><path d="M76.006 76.27V18.803L42.5 1.11V8.12l29.17 15.233v6.956L14.15 0v6.955l28.35 14.89V28.8L14.175 13.937V76.27H0V80h90.129v-3.73H76.006zM57.283 43.15h6.691v3.043h-6.69V43.15zm0 6.058h6.691v3.041h-6.69v-3.041zm0 6.135h6.691v3.067h-6.69v-3.067zm0 6.24h6.691v3.042h-6.69v-3.042zm-17.64-14.545h6.717v3.041h-6.717v-3.04zm0 6.057h6.717v3.04h-6.717v-3.04zm0 6.136h6.717v3.067h-6.717V59.23zm0 6.241h6.717v3.041h-6.717v-3.04zM22.03 54.752v-3.067h6.717v3.066H22.03zm6.717 3.174v3.04H22.03v-3.04h6.717zm-6.717-9.31v-3.04h6.717v3.04H22.03zm0-6.055v-3.068h6.717v3.068H22.03zm10.816 22.637H22.03v-1.375h9.441V36.266h-9.44v-1.402h10.815v30.334zm17.64 7.547H39.643V71.37h9.441V43.812h-9.44V42.41h10.842v30.335zM68.1 68.856H57.283v-1.402h9.441v-27.53h-9.44v-1.402h10.815v30.334z" fill="#FFF" fill-rule="evenodd"/></svg>