<svg width="113" height="89" viewBox="0 0 113 89" xmlns="http://www.w3.org/2000/svg"><title>tier_ico</title><path d="M93.763 16.747c.404.405.673.945.673 1.62a2.24 2.24 0 0 1-.673 1.62 2.224 2.224 0 0 1-1.614.676c-.673 0-1.21-.27-1.614-.675a2.24 2.24 0 0 1-.673-1.62c0-1.351.942-2.297 2.287-2.297.672 0 1.21.27 1.614.676zm-6.995 0c.403.405.672.945.672 1.62 0 .675-.134 1.216-.672 1.62a2.224 2.224 0 0 1-1.614.676c-.673 0-1.211-.27-1.615-.675a2.24 2.24 0 0 1-.672-1.62c0-1.351.941-2.297 2.287-2.297.672 0 1.345.27 1.614.676zm-6.86 0c.403.405.672.945.672 1.62a2.24 2.24 0 0 1-.673 1.62 2.224 2.224 0 0 1-1.614.676c-.673 0-1.21-.27-1.614-.675a2.24 2.24 0 0 1-.673-1.62c0-1.351.942-2.297 2.287-2.297.538 0 1.21.27 1.614.676zm-6.996 0c.403.405.673.945.673 1.62a2.24 2.24 0 0 1-.673 1.62 2.224 2.224 0 0 1-1.614.676c-.673 0-1.211-.27-1.615-.675a2.24 2.24 0 0 1-.672-1.62c0-1.351.941-2.297 2.287-2.297.538 0 1.21.27 1.614.676zm-6.995 0c.403.405.672.945.672 1.62a2.24 2.24 0 0 1-.672 1.62 2.224 2.224 0 0 1-1.615.676c-.672 0-1.21-.27-1.614-.675a2.24 2.24 0 0 1-.673-1.62c0-1.351.942-2.297 2.287-2.297.538 0 1.211.27 1.615.676zm-6.996 0c.404.405.673.945.673 1.62a2.24 2.24 0 0 1-.673 1.62 2.224 2.224 0 0 1-1.614.676c-.672 0-1.21-.27-1.614-.675a2.24 2.24 0 0 1-.673-1.62c0-1.351.942-2.297 2.287-2.297.538 0 1.21.27 1.614.676zm-6.995 0c.404.405.673.945.673 1.62a2.24 2.24 0 0 1-.673 1.62 2.224 2.224 0 0 1-1.614.676c-.673 0-1.21-.27-1.614-.675a2.24 2.24 0 0 1-.673-1.62c0-1.351.942-2.297 2.287-2.297.538 0 1.21.27 1.614.676zm-6.995 0c.404.405.673.945.673 1.62a2.24 2.24 0 0 1-.673 1.62 2.224 2.224 0 0 1-1.614.676c-.673 0-1.211-.27-1.615-.675a2.24 2.24 0 0 1-.672-1.62c0-1.351.941-2.297 2.287-2.297.672 0 1.21.27 1.614.676zm-6.995 0c.403.405.672.945.672 1.62a2.24 2.24 0 0 1-.672 1.62 2.224 2.224 0 0 1-1.615.676c-.672 0-1.21-.27-1.614-.675a2.24 2.24 0 0 1-.672-1.62c0-1.351.941-2.297 2.286-2.297.673 0 1.211.27 1.615.676zm55.827-6.078V5.942H73.988v4.727h19.775zm.807-5.132v5.402c0 .27-.134.405-.403.405H73.585c-.27 0-.404-.135-.404-.405V5.537c0-.27.134-.405.404-.405h20.582c.134 0 .403.27.403.405zM71.298 10.67V5.942H66.32v4.727h4.978zm.269.675h-5.785c-.269 0-.403-.135-.403-.405V5.537c0-.27.134-.405.403-.405h5.785c.269 0 .403.135.403.405v5.402c0 .27-.134.405-.403.405zm-8.072-.675V5.942h-4.977v4.727h4.977zm.807-5.132v5.402c0 .27-.134.405-.403.405h-5.785c-.269 0-.403-.135-.403-.405V5.537c0-.27.134-.405.403-.405H63.9c.269 0 .403.27.403.405zm-8.61 5.132V5.942h-4.977v4.727h4.978zm-5.784.27V5.537c0-.27.135-.405.404-.405h5.784c.27 0 .404.135.404.405v5.402c0 .27-.135.405-.404.405h-5.784c-.27 0-.404-.135-.404-.405zm-1.883-.27V5.942h-4.977v4.727h4.977zm.673-5.132v5.402c0 .27-.135.405-.404.405H42.51c-.27 0-.404-.135-.404-.405V5.537c0-.27.134-.405.404-.405h5.784c.27 0 .404.27.404.405zm-8.61 5.132V5.942h-4.977v4.727h4.977zm.404.675h-5.785c-.269 0-.403-.135-.403-.405V5.537c0-.27.134-.405.403-.405h5.785c.269 0 .403.135.403.405v5.402c0 .27-.134.405-.403.405zm-16.95-3.106c0-1.08-.942-2.026-2.018-2.026-1.076 0-2.018.946-2.018 2.026 0 1.08.942 2.026 2.018 2.026 1.076 0 2.018-.945 2.018-2.026zm-5.65 0c0-1.89 1.614-3.646 3.632-3.646a3.624 3.624 0 0 1 3.632 3.646c0 1.891-1.614 3.647-3.632 3.647-2.018-.135-3.632-1.621-3.632-3.647zm5.65 10.13c0-1.081-.942-2.027-2.018-2.027-1.076 0-2.018.946-2.018 2.026 0 1.08.942 2.026 2.018 2.026 1.076 0 2.018-.945 2.018-2.026zm-5.65 0c0-1.892 1.614-3.647 3.632-3.647a3.624 3.624 0 0 1 3.632 3.646c0 1.891-1.614 3.647-3.632 3.647-2.018-.135-3.632-1.621-3.632-3.647zm78.562 8.373H16.546c-1.748 0-3.094-1.351-3.094-3.107V3.106C13.452 1.351 14.798 0 16.546 0h79.908c1.748 0 3.094 1.35 3.094 3.106v20.528c0 1.756-1.346 3.107-3.094 3.107zm0-25.255H16.546c-.807 0-1.614.675-1.614 1.62v20.528c0 .81.673 1.62 1.614 1.62h79.908c.807 0 1.614-.674 1.614-1.62V3.106c-.135-.945-.807-1.62-1.614-1.62zM80.31 47.809c.403.405.672.945.672 1.62a2.24 2.24 0 0 1-.672 1.621 2.224 2.224 0 0 1-1.615.675c-.672 0-1.21-.27-1.614-.675a2.24 2.24 0 0 1-.672-1.62c0-1.351.941-2.296 2.286-2.296.673 0 1.211.405 1.615.675zm-6.996 0c.404.405.673.945.673 1.62a2.24 2.24 0 0 1-.673 1.621 2.224 2.224 0 0 1-1.614.675c-.672 0-1.21-.27-1.614-.675a2.24 2.24 0 0 1-.673-1.62c0-1.351.942-2.296 2.287-2.296.673 0 1.345.405 1.614.675zm-6.86 0c.403.405.672.945.672 1.62a2.24 2.24 0 0 1-.672 1.621 2.224 2.224 0 0 1-1.615.675c-.672 0-1.21-.27-1.614-.675a2.24 2.24 0 0 1-.672-1.62c0-1.351.941-2.296 2.286-2.296.539 0 1.211.405 1.615.675zm-6.995 0c.403.405.672.945.672 1.62a2.24 2.24 0 0 1-.672 1.621 2.224 2.224 0 0 1-1.615.675c-.672 0-1.21-.27-1.614-.675a2.24 2.24 0 0 1-.673-1.62c0-1.351.942-2.296 2.287-2.296.538 0 1.211.405 1.615.675zm-6.996 0c.404.405.673.945.673 1.62a2.24 2.24 0 0 1-.673 1.621 2.224 2.224 0 0 1-1.614.675c-.673 0-1.21-.27-1.614-.675a2.24 2.24 0 0 1-.673-1.62c0-1.351.942-2.296 2.287-2.296.538 0 1.21.405 1.614.675zm-6.995 0c.404.405.673.945.673 1.62a2.24 2.24 0 0 1-.673 1.621 2.224 2.224 0 0 1-1.614.675c-.673 0-1.211-.27-1.615-.675a2.24 2.24 0 0 1-.672-1.62c0-1.351.942-2.296 2.287-2.296.538 0 1.21.405 1.614.675zm-6.995 0c.403.405.672.945.672 1.62a2.24 2.24 0 0 1-.672 1.621 2.224 2.224 0 0 1-1.614.675c-.673 0-1.211-.27-1.615-.675a2.24 2.24 0 0 1-.672-1.62c0-1.351.941-2.296 2.287-2.296.538 0 1.21.405 1.614.675zm-6.995 0c.403.405.672.945.672 1.62a2.24 2.24 0 0 1-.672 1.621 2.224 2.224 0 0 1-1.615.675c-.672 0-1.21-.27-1.614-.675a2.24 2.24 0 0 1-.673-1.62c0-1.351.942-2.296 2.287-2.296.673 0 1.211.405 1.615.675zm-6.996 0c.404.405.673.945.673 1.62a2.24 2.24 0 0 1-.673 1.621 2.224 2.224 0 0 1-1.614.675c-.673 0-1.21-.27-1.614-.675a2.24 2.24 0 0 1-.673-1.62c0-1.351.942-2.296 2.287-2.296.673 0 1.21.405 1.614.675zm55.828-6.078v-4.726H60.536v4.726H80.31zm.807-5.132v5.403c0 .27-.135.405-.404.405H60.132c-.269 0-.403-.135-.403-.405v-5.403c0-.27.134-.405.403-.405h20.582c.135.135.404.27.404.405zm-23.273 5.132v-4.726h-4.977v4.726h4.977zm.27.81H52.33c-.27 0-.404-.134-.404-.404v-5.403c0-.27.135-.405.404-.405h5.784c.27 0 .404.135.404.405v5.403c0 .27-.135.405-.404.405zm-8.072-.81v-4.726h-4.978v4.726h4.978zm.807-5.132v5.403c0 .27-.135.405-.404.405h-5.784c-.27 0-.404-.135-.404-.405v-5.403c0-.27.135-.405.404-.405h5.784c.27.135.404.27.404.405zm-8.61 5.132v-4.726h-4.977v4.726h4.977zm-5.784.406v-5.403c0-.27.134-.405.404-.405h5.784c.27 0 .404.135.404.405v5.403c0 .27-.135.405-.404.405H36.86c-.27 0-.404-.135-.404-.405zm-1.883-.406v-4.726h-4.978v4.726h4.978zm.672-5.132v5.403c0 .27-.134.405-.403.405h-5.785c-.269 0-.403-.135-.403-.405v-5.403c0-.27.134-.405.403-.405h5.785c.269.135.403.27.403.405zm-8.61 5.132v-4.726h-4.977v4.726h4.978zm.404.81h-5.784c-.27 0-.404-.134-.404-.404v-5.403c0-.27.135-.405.404-.405h5.784c.27 0 .404.135.404.405v5.403c0 .27-.135.405-.404.405zm-16.95-3.24c0-1.081-.941-2.026-2.018-2.026-1.076 0-2.017.945-2.017 2.025s.941 2.026 2.017 2.026c1.077 0 2.018-.81 2.018-2.026zm-5.65 0c0-1.891 1.615-3.647 3.632-3.647a3.624 3.624 0 0 1 3.633 3.646 3.624 3.624 0 0 1-3.633 3.647A3.624 3.624 0 0 1 4.44 39.3zm5.65 10.128c0-1.08-.941-2.025-2.018-2.025-1.076 0-2.017.945-2.017 2.025s.941 2.026 2.017 2.026c1.077 0 2.018-.81 2.018-2.026zm-5.65 0c0-1.89 1.615-3.646 3.632-3.646a3.624 3.624 0 0 1 3.633 3.646 3.624 3.624 0 0 1-3.633 3.647 3.624 3.624 0 0 1-3.632-3.647zm78.562 8.509H3.094C1.345 57.938 0 56.588 0 54.832V34.168c0-1.755 1.345-3.106 3.094-3.106h79.907c1.749 0 3.094 1.35 3.094 3.106v20.664c0 1.62-1.345 3.106-3.094 3.106zm0-25.39H3.094c-.807 0-1.614.675-1.614 1.62v20.664c0 .81.672 1.62 1.614 1.62h79.907c.807 0 1.614-.675 1.614-1.62V34.168c-.134-.81-.807-1.62-1.614-1.62zm24.214 46.458c.404.405.673.945.673 1.62a2.24 2.24 0 0 1-.673 1.621 2.224 2.224 0 0 1-1.614.676c-.672 0-1.21-.27-1.614-.676a2.24 2.24 0 0 1-.673-1.62c0-1.35.942-2.296 2.287-2.296.673 0 1.21.27 1.614.675zm-6.995 0c.404.405.673.945.673 1.62a2.24 2.24 0 0 1-.673 1.621 2.224 2.224 0 0 1-1.614.676c-.673 0-1.21-.27-1.614-.676a2.24 2.24 0 0 1-.673-1.62c0-1.35.942-2.296 2.287-2.296.673 0 1.345.27 1.614.675zm-6.86 0c.403.405.672.945.672 1.62a2.24 2.24 0 0 1-.672 1.621 2.224 2.224 0 0 1-1.615.676c-.672 0-1.21-.27-1.614-.676a2.24 2.24 0 0 1-.673-1.62c0-1.35.942-2.296 2.287-2.296.538 0 1.211.27 1.615.675zm-6.996 0c.404.405.673.945.673 1.62a2.24 2.24 0 0 1-.673 1.621 2.224 2.224 0 0 1-1.614.676c-.673 0-1.21-.27-1.614-.676a2.24 2.24 0 0 1-.673-1.62c0-1.35.942-2.296 2.287-2.296.538 0 1.21.27 1.614.675zm-6.995 0c.404.405.673.945.673 1.62a2.24 2.24 0 0 1-.673 1.621 2.224 2.224 0 0 1-1.614.676c-.673 0-1.211-.27-1.615-.676a2.24 2.24 0 0 1-.672-1.62c0-1.35.942-2.296 2.287-2.296.538 0 1.21.27 1.614.675zm-6.995 0c.403.405.672.945.672 1.62a2.24 2.24 0 0 1-.672 1.621 2.224 2.224 0 0 1-1.614.676c-.673 0-1.211-.27-1.615-.676a2.24 2.24 0 0 1-.672-1.62c0-1.35.941-2.296 2.287-2.296.538 0 1.21.27 1.614.675zm-6.995 0c.403.405.672.945.672 1.62a2.24 2.24 0 0 1-.672 1.621 2.224 2.224 0 0 1-1.615.676c-.672 0-1.21-.27-1.614-.676a2.24 2.24 0 0 1-.673-1.62c0-1.35.942-2.296 2.287-2.296.538 0 1.211.27 1.615.675zm-6.996 0c.404.405.673.945.673 1.62a2.24 2.24 0 0 1-.673 1.621 2.224 2.224 0 0 1-1.614.676c-.673 0-1.21-.27-1.614-.676a2.24 2.24 0 0 1-.673-1.62c0-1.35.942-2.296 2.287-2.296.673 0 1.21.27 1.614.675zm-6.995 0c.404.405.673.945.673 1.62a2.24 2.24 0 0 1-.673 1.621 2.224 2.224 0 0 1-1.614.676c-.673 0-1.21-.27-1.614-.676a2.24 2.24 0 0 1-.673-1.62c0-1.35.942-2.296 2.287-2.296.672 0 1.21.27 1.614.675zm55.827-6.212v-4.592H87.44v4.727l19.775-.135zm.808-4.997v5.402c0 .27-.135.405-.404.405H87.037c-.27 0-.404-.135-.404-.405v-5.402c0-.27.135-.405.404-.405h20.582c.135 0 .404.27.404.405zM84.75 72.794v-4.592h-4.977v4.727l4.977-.135zm.269.81h-5.784c-.27 0-.404-.135-.404-.405v-5.402c0-.27.134-.405.404-.405h5.784c.27 0 .404.135.404.405v5.402c0 .27-.135.405-.404.405zm-8.071-.81v-4.592H71.97v4.727l4.978-.135zm.807-4.997v5.402c0 .27-.135.405-.404.405h-5.784c-.27 0-.404-.135-.404-.405v-5.402c0-.27.135-.405.404-.405h5.784c.27 0 .404.27.404.405zm-8.61 4.997v-4.592h-4.977v4.727l4.977-.135zm-5.784.405v-5.402c0-.27.134-.405.403-.405h5.785c.269 0 .403.135.403.405v5.402c0 .27-.134.405-.403.405h-5.785c-.269 0-.403-.135-.403-.405zm-1.884-.405v-4.592H56.5v4.727l4.977-.135zm.673-4.997v5.402c0 .27-.135.405-.404.405h-5.784c-.27 0-.404-.135-.404-.405v-5.402c0-.27.135-.405.404-.405h5.784c.27 0 .404.27.404.405zm-8.61 4.997v-4.592h-4.977v4.727l4.977-.135zm.404.81H48.16c-.27 0-.404-.135-.404-.405v-5.402c0-.27.134-.405.404-.405h5.784c.27 0 .404.135.404.405v5.402c0 .27-.135.405-.404.405zm-16.95-3.241c0-1.08-.942-2.026-2.018-2.026-1.076 0-2.018.945-2.018 2.026 0 1.08.942 2.025 2.018 2.025 1.076 0 2.018-.81 2.018-2.025zm-5.65 0c0-1.891 1.614-3.647 3.632-3.647a3.624 3.624 0 0 1 3.632 3.647c0 1.89-1.614 3.646-3.632 3.646a3.624 3.624 0 0 1-3.632-3.646zm5.65 10.129c0-1.08-.942-2.026-2.018-2.026-1.076 0-2.018.945-2.018 2.026 0 1.08.942 2.025 2.018 2.025 1.076 0 2.018-.81 2.018-2.025zm-5.65 0c0-1.891 1.614-3.647 3.632-3.647a3.624 3.624 0 0 1 3.632 3.647 3.624 3.624 0 0 1-3.632 3.646 3.624 3.624 0 0 1-3.632-3.646zM109.906 89H29.999c-1.749 0-3.094-1.35-3.094-3.106V65.23c0-1.756 1.345-3.107 3.094-3.107h79.907c1.749 0 3.094 1.351 3.094 3.107v20.663c0 1.755-1.345 3.106-3.094 3.106zm0-25.255H29.999c-.807 0-1.614.675-1.614 1.62V86.03c0 .81.672 1.62 1.614 1.62h79.907c.807 0 1.614-.675 1.614-1.62V65.23c-.134-.81-.807-1.486-1.614-1.486z" fill="#FC4201" fill-rule="evenodd"/></svg>