<svg width="25" height="26" viewBox="0 0 25 26" xmlns="http://www.w3.org/2000/svg"><title>Shape</title><path d="M24.966 13.877c.005-.081.014-.162.018-.243a12.754 12.754 0 0 0 0-1.236c-.003-.08-.01-.159-.015-.238a12.106 12.106 0 0 0-.027-.353c-.01-.099-.022-.197-.034-.295-.011-.095-.022-.19-.036-.285a16.214 16.214 0 0 0-.096-.574 13.453 13.453 0 0 0-.206-.9l-.067-.237c-.031-.106-.062-.212-.095-.317l-.092-.271c-.031-.09-.061-.18-.094-.269-.053-.144-.11-.287-.17-.429l-.039-.099a12.48 12.48 0 0 0-2.082-3.336.291.291 0 0 0-.05-.042A12.471 12.471 0 0 0 12.502.5C8.585.5 5.086 2.31 2.793 5.135c-.008.007-.018.01-.024.02-.071.088-.136.18-.205.271a11.935 11.935 0 0 0-.403.556c-.044.064-.085.13-.127.194-.14.214-.273.431-.399.653-.052.091-.105.182-.154.275a11.074 11.074 0 0 0-.334.673c-.035.075-.074.148-.107.223-.003.008-.002.016-.004.023A12.43 12.43 0 0 0 0 13c0 6.892 5.608 12.5 12.5 12.5 6.467 0 11.802-4.936 12.437-11.238v-.003c.013-.127.02-.255.029-.382zm-.653-.642a.57.57 0 0 0-.258-.06c-.198 0-.375.096-.554.204-.328.199-.462.53-.56.77-.027.066-.064.158-.093.208-.069-.056-.124-.316-.15-.434a1.485 1.485 0 0 0-.116-.387c-.157-.293-.317-.523-.82-.59-.385-.054-.746.287-1.082.616-.131.128-.267.261-.366.326a3.607 3.607 0 0 0-.29.212 2.793 2.793 0 0 1-.085-.133c-.141-.228-.335-.54-.685-.673-.354-.134-.73-.035-.946.244-.18.233-.235.558-.15.891.153.593.43 1.142.801 1.588.137.164.207.724-.852 2.631l-.092.165c-.177.32-.36.652-.547.788l-.09.067a1.025 1.025 0 0 1-.173.116.373.373 0 0 1-.11-.077c-.24-.215-.475-1.006-.509-1.414a2.977 2.977 0 0 0-.046-.299c-.04-.223-.103-.56-.145-1.21l.008-.065c.03-.213.083-.61-.155-.883a.685.685 0 0 0-.54-.226c-.032 0-.068.002-.104.006-.074.007-.169.03-.32.066-.105.026-.222.055-.314.07l-.167.033c-.093.02-.19.04-.259.046-.127-.057-.554-.457-.617-.564a1.032 1.032 0 0 1 .009-.633c.034-.092.14-.198.245-.3.094-.092.192-.187.27-.302.082-.12.135-.239.178-.334.039-.086.073-.161.091-.189a.193.193 0 0 1 .032-.002c.01 0 .024.003.032 0 .075 0 .178 0 .313-.029.142-.03.279-.1.411-.168.085-.044.227-.117.247-.125l.007.002.02.12c.075.406.494.736.935.736.135 0 .264-.03.382-.09.173-.087.289-.149.38-.199.12-.064.197-.106.326-.16.797-.334 1.181-.991 1.027-1.758-.148-.736-.765-1.335-1.376-1.335a.972.972 0 0 0-.702.306c-.327.333-.032.719.11.905a1.6 1.6 0 0 1 .154.227c-.188-.107-.487-.39-.598-.496-.226-.213-.32-.302-.505-.302h-.002c-.336.02-.579.298-.813.567-.093.108-.25.287-.285.309-.074-.011-.215-.179-.268-.276a4.1 4.1 0 0 1 .267-.156l.232-.131a.442.442 0 0 0 .23-.335c.021-.173-.064-.311-.163-.423.27-.11.677-.254 1.037-.36a.968.968 0 0 1 .457-.01c.153.025.353.045.533-.004.352-.094.402-.388.428-.546.025-.149.051-.302.26-.51.23-.23.29-.533.166-.833-.163-.393-.655-.751-1.034-.751a.83.83 0 0 0-.05.002c-.774.068-.99.65-1.105.963-.02.05-.044.119-.066.165-.126-.067-.11-.317-.101-.397.062-.553.572-1.326 1.356-1.27.217.015.5.236.728.414.26.202.466.362.702.362a.465.465 0 0 0 .326-.131c.24-.234.211-.573.188-.844-.012-.138-.027-.308.006-.378.084-.179.222-.381.336-.514.02.182-.002.413-.022.612-.036.367-.067.684.116.905.087.106.209.168.351.18.55.048.795-.466.952-.799.023-.05.052-.111.078-.161a.719.719 0 0 0 .269.057.546.546 0 0 0 .291-.083c.412-.252.537-.594.588-.916.59.774 1.088 1.621 1.474 2.528l.05.124c.05.118.096.236.141.357a8.508 8.508 0 0 1 .17.49 10.03 10.03 0 0 1 .15.5c.025.088.05.177.073.267.022.088.042.177.062.265.035.153.066.306.095.46.017.093.035.186.05.28.013.084.024.168.036.253a12.108 12.108 0 0 1 .062.533c.01.115.019.23.026.346.004.065.01.13.012.196.008.183.014.366.014.55.001.08-.003.158-.005.237zM3.546 6.107c.19.232.429.521.802.714.12.062.246.093.376.093.518 0 .95-.485 1.367-.953.258-.29.525-.589.751-.703.494-.248 1.114-.38 1.662-.497.225-.047.44-.093.638-.144.189-.048.376-.101.56-.152.458-.13.89-.251 1.163-.251v-.341l.034.341c.068.002.154.005.228.01-.118.122-.52.341-.795.49-.743.405-1.511.823-1.545 1.417-.032.564.352.888.66 1.15.175.147.34.286.385.428.089.279.045.366.046.366-.008.007-.045.027-.17.023-.17-.007-.405-.177-.612-.326-.232-.168-.472-.341-.733-.386-1.182-.208-1.783 1.346-1.846 1.636-.106.49.11 1 .49 1.164.082.035.171.052.267.052.312 0 .64-.186.958-.366.155-.089.315-.18.41-.208.215-.063.584.178.825.53.193.282.22.5.183.59-.033.03-.215.03-.312.031-.24.002-.54.003-.796.184-.273.194-.4.466-.503.685-.076.162-.141.301-.243.377-.395.294-.642.37-.86.437-.238.074-.485.15-.73.468-.258.334-.235.633-.171.826.255.764 1.617 1.197 3.11 1.608l.387.108.005.09c.012.257.03.61.31.78.174.105.414.146.692.195.26.046.742.13.807.275.165.364-.809 1.492-1.276 2.034-.28.325-.523.606-.657.818-.426.68-.533 1.753-.59 2.338-.174-.217-.373-.574-.392-.805-.022-.265.018-.723.06-1.207.064-.74.131-1.506.026-2.008-.12-.58-.48-.83-.742-1.012-.16-.11-.25-.178-.28-.266-.049-.153-.029-.285-.004-.452.033-.215.074-.484-.068-.788-.195-.417-.644-.604-1.164-.821-.86-.359-1.931-.805-2.369-2.474-.054-.209.004-.344.092-.547.087-.203.196-.455.172-.793-.04-.568-.234-1.475-.518-2.039-.259-.512-.633-.876-1.114-1.08a.884.884 0 0 0-.349-.069c-.08 0-.158.01-.232.024.053-.106.106-.212.162-.316l.011-.021c.31-.57.67-1.11 1.066-1.618.104.053.206.167.366.361zM12.5 24.82C5.983 24.82.681 19.517.681 13c0-1.6.321-3.127.9-4.52.1-.013.201-.036.295-.062.146-.042.298-.08.379-.046.333.142.586.39.772.76.232.461.413 1.282.447 1.78.012.174-.045.307-.118.476-.107.247-.239.553-.124.99.522 1.994 1.872 2.557 2.765 2.93.39.162.725.302.809.48.052.112.04.213.012.398-.031.204-.07.457.03.764.101.311.333.473.538.615.223.155.399.277.464.592.084.403.02 1.15-.038 1.81-.044.514-.087.999-.06 1.323.045.528.64 1.605 1.224 1.605a.489.489 0 0 0 .414-.23c.066-.102.077-.214.11-.547.05-.527.146-1.506.49-2.056.106-.169.343-.444.595-.735.81-.937 1.726-2 1.382-2.76-.214-.473-.822-.579-1.31-.664a3.295 3.295 0 0 1-.418-.09 1.826 1.826 0 0 1-.023-.249c-.011-.238-.027-.565-.333-.661-.144-.046-.337-.099-.557-.16-.743-.204-2.484-.684-2.646-1.167-.007-.023-.026-.077.065-.194.112-.147.189-.17.392-.233.243-.075.575-.178 1.065-.542.24-.178.353-.42.453-.635.082-.176.153-.328.28-.418.08-.056.245-.057.405-.058.287-.001.768-.003.954-.485.128-.33.031-.768-.266-1.202-.277-.404-.767-.837-1.31-.837a.956.956 0 0 0-.27.039c-.171.05-.357.156-.554.268-.206.118-.489.278-.62.28-.048-.02-.135-.195-.092-.393.043-.2.476-1.211 1.064-1.11.107.02.289.15.45.267.286.207.61.44.986.455l.056.001c.386 0 .587-.164.687-.301.17-.231.188-.56.055-.976-.104-.329-.364-.548-.594-.742-.268-.227-.432-.377-.42-.591.012-.215.839-.665 1.192-.858.585-.318.951-.527 1.093-.797.051-.098.209-.397.049-.67-.17-.291-.532-.302-.892-.312h-.043c-.367 0-.844.134-1.348.276-.178.05-.361.102-.544.149-.19.048-.396.092-.61.138-.589.124-1.255.266-1.827.554-.342.173-.653.521-.954.858-.272.306-.645.725-.858.725a.136.136 0 0 1-.064-.017c-.249-.128-.422-.338-.59-.541-.132-.16-.274-.33-.454-.457a11.796 11.796 0 0 1 17.688-.091 4.352 4.352 0 0 0-.046.36c-.03.345-.053.528-.256.673l-.03-.013a.74.74 0 0 0-.29-.07.503.503 0 0 0-.38.173c-.1.112-.17.26-.243.417-.03.066-.085.183-.141.274.005-.07.012-.144.018-.206.039-.39.087-.877-.136-1.244a.487.487 0 0 0-.42-.246c-.56 0-1.048 1.027-1.053 1.037-.11.235-.088.496-.067.725l.01.116a5.546 5.546 0 0 1-.128-.098c-.302-.235-.676-.527-1.1-.557-1.148-.077-1.976.936-2.08 1.874-.066.593.194 1.044.662 1.15a.725.725 0 0 0 .16.019c.429 0 .573-.39.66-.625.12-.322.197-.492.513-.52.094.008.354.178.412.34.012.033.014.045-.022.08a1.465 1.465 0 0 0-.45.88l-.001.01c-.06 0-.116-.01-.176-.02a1.758 1.758 0 0 0-.76.03c-.014.003-1.335.398-1.59.644a.389.389 0 0 0-.12.284c.001.169.102.29.207.393-.342.19-.61.348-.61.695 0 .337.437.999.965.999.33 0 .57-.276.802-.543.077-.088.19-.22.263-.289l.074.071c.418.396.793.723 1.168.723.181 0 .342-.08.452-.224.349-.462.014-.902-.166-1.138a3.246 3.246 0 0 1-.067-.09.253.253 0 0 1 .118-.027c.254 0 .619.344.709.788.062.31.004.733-.623.996a3.905 3.905 0 0 0-.384.188c-.089.048-.2.107-.365.191-.125.063-.324-.075-.34-.16l-.018-.108c-.053-.318-.141-.423-.45-.533-.25-.09-.55.039-.787.16-.088.045-.19.097-.244.109-.065.014-.114.014-.171.014-.125 0-.312 0-.503.174-.14.127-.21.282-.271.418a1.422 1.422 0 0 1-.12.229c-.04.06-.11.128-.184.2-.15.148-.321.315-.408.552-.122.332-.127.76-.013 1.09.093.272.784.936 1.092 1 .174.035.382 0 .566-.037.048-.01.095-.02.141-.028.107-.018.242-.05.365-.081.093-.023.176-.045.221-.05a.403.403 0 0 1 .04-.002h.028c.018.05.015.162-.009.335-.01.081-.015.145-.013.18.044.711.111 1.072.155 1.312.018.092.032.163.037.231.029.35.258 1.44.733 1.866.19.168.374.25.564.25.248 0 .426-.135.584-.254l.08-.059c.31-.225.53-.624.743-1.01l.09-.163c.715-1.286 1.366-2.695.781-3.398a3.395 3.395 0 0 1-.664-1.322c-.039-.15-.011-.255.027-.305.037-.047.093-.052.168-.023.133.05.247.233.346.394.131.211.28.45.56.472.033.003.062.004.088.004.227 0 .345-.093.459-.182.05-.04.117-.093.222-.163.154-.101.306-.25.468-.409.147-.144.42-.412.514-.428.198.027.209.047.31.235.014.032.036.135.052.21.067.319.193.913.758.98.504.057.671-.368.782-.64.075-.186.147-.361.28-.443.077-.046.134-.077.168-.093.014.02.031.05.053.096.016.034.085.166.173.327-.645 5.91-5.666 10.526-11.746 10.526z" fill="#FFF" fill-rule="evenodd" opacity=".723"/></svg>