<svg width="69" height="75" viewBox="0 0 69 75" xmlns="http://www.w3.org/2000/svg" xmlns:xlink="http://www.w3.org/1999/xlink"><title>Shape</title><defs><linearGradient x1="100%" y1="0%" x2="50%" y2="98.28%" id="c"><stop stop-color="#F77537" offset="0%"/><stop stop-color="#E84C1C" offset="56.137%"/><stop stop-color="#CF3F3C" offset="100%"/></linearGradient><path d="M79.5 54.197a6.769 6.769 0 0 1 3.806 12.366 9.953 9.953 0 0 1 5.438 5.5 7.375 7.375 0 0 1 2.686-1.925 5.023 5.023 0 1 1 5.65 0 7.365 7.365 0 0 1 4.503 6.8v2.434c0 .567-.46 1.027-1.027 1.027H58.444c-.567 0-1.027-.46-1.027-1.027v-2.435a7.365 7.365 0 0 1 4.545-6.8 5.023 5.023 0 1 1 5.649 0 7.375 7.375 0 0 1 2.686 1.927 9.953 9.953 0 0 1 5.397-5.5A6.769 6.769 0 0 1 79.5 54.196zM62.593 83.352h-3.985a1.197 1.197 0 0 0-1.191 1.201v3.986a1.197 1.197 0 0 0 1.196 1.201H62.6a1.197 1.197 0 0 0 1.196-1.201v-3.986a1.197 1.197 0 0 0-1.202-1.201zm1.15 10.533v2.763c0 .66.537 1.197 1.197 1.197h2.748a1.202 1.202 0 0 0 1.197-1.197v-2.763c0-.662-.535-1.199-1.197-1.202H64.94a1.197 1.197 0 0 0-1.196 1.202zm8.788 0v2.763c.003.66.537 1.194 1.197 1.197h2.763c.661 0 1.198-.535 1.201-1.197v-2.763a1.202 1.202 0 0 0-1.201-1.197h-2.763c-.662 0-1.2.535-1.202 1.197h.005zm-.483-10.528h-3.99c-.661 0-1.197.536-1.197 1.196v3.986a1.197 1.197 0 0 0 1.197 1.201h3.985a1.197 1.197 0 0 0 1.197-1.201v-3.986a1.197 1.197 0 0 0-1.197-1.201l.005.005zm9.45 0h-3.99c-.662 0-1.197.536-1.197 1.196v3.986c0 .661.535 1.199 1.196 1.201h3.986a1.202 1.202 0 0 0 1.196-1.201v-3.986a1.197 1.197 0 0 0-1.196-1.201l.005.005zm9.45 0h-3.991c-.66 0-1.197.536-1.197 1.196v3.986a1.197 1.197 0 0 0 1.197 1.201h3.985a1.197 1.197 0 0 0 1.197-1.201v-3.986a1.197 1.197 0 0 0-1.197-1.201l.005.005zm5.459 6.378h3.985a1.197 1.197 0 0 0 1.191-1.196v-3.986c0-.66-.535-1.196-1.196-1.196h-3.98a1.197 1.197 0 0 0-1.202 1.196v3.986c.003.661.54 1.196 1.202 1.196zm-13.898 2.948a1.197 1.197 0 0 0-1.196 1.202v2.763c0 .66.536 1.197 1.196 1.197h2.763a1.202 1.202 0 0 0 1.197-1.197v-2.763a1.202 1.202 0 0 0-1.197-1.197l-2.763-.005zm11.545 0h-2.742a1.197 1.197 0 0 0-1.212 1.202v2.763a1.197 1.197 0 0 0 1.212 1.191h2.763c.66 0 1.197-.535 1.197-1.196v-2.758a1.197 1.197 0 0 0-1.212-1.202h-.006zm-22.19 8.1c-.662 0-1.197.535-1.197 1.196v1.628c0 .66.535 1.196 1.196 1.196h1.628c.661 0 1.197-.535 1.197-1.196v-1.623c0-.661-.536-1.197-1.197-1.197l-1.628-.005zm8.489 0h-1.628a1.202 1.202 0 0 0-1.197 1.196v1.628c.003.66.537 1.194 1.197 1.196h1.633a1.202 1.202 0 0 0 1.196-1.191v-1.628a1.197 1.197 0 0 0-1.201-1.202zm5.228 0c-.661 0-1.197.535-1.197 1.196v1.628c0 .66.536 1.196 1.197 1.196h1.622c.662 0 1.2-.535 1.202-1.196v-1.623c0-.664-.538-1.202-1.202-1.202h-1.622z" id="b"/><filter x="-48.7%" y="-28.7%" width="197.4%" height="185%" filterUnits="objectBoundingBox" id="a"><feMorphology radius="2" operator="dilate" in="SourceAlpha" result="shadowSpreadOuter1"/><feOffset dy="7" in="shadowSpreadOuter1" result="shadowOffsetOuter1"/><feGaussianBlur stdDeviation="4" in="shadowOffsetOuter1" result="shadowBlurOuter1"/><feColorMatrix values="0 0 0 0 0.0390890731 0 0 0 0 0.0390890731 0 0 0 0 0.0390890731 0 0 0 0.310999774 0" in="shadowBlurOuter1"/></filter></defs><g transform="translate(-45 -49)" fill="none" fill-rule="evenodd"><use fill="#000" filter="url(#a)" xlink:href="#b"/><use fill="url(#c)" xlink:href="#b"/></g></svg>