<svg width="75" height="77" viewBox="0 0 75 77" xmlns="http://www.w3.org/2000/svg" xmlns:xlink="http://www.w3.org/1999/xlink"><title>Shape</title><defs><linearGradient x1="100%" y1="0%" x2="50%" y2="98.28%" id="c"><stop stop-color="#F77537" offset="0%"/><stop stop-color="#E84C1C" offset="56.137%"/><stop stop-color="#CF3F3C" offset="100%"/></linearGradient><path d="M98.51 89.553a.818.818 0 0 0-.818.818v10.405a.818.818 0 0 0 1.635 0V90.371a.818.818 0 0 0-.817-.818zm2.242 4.175a.818.818 0 0 0-.818.817v6.231a.818.818 0 0 0 1.636 0v-6.23a.818.818 0 0 0-.818-.818zm2.241 3.135a.818.818 0 0 0-.818.818v3.095a.818.818 0 0 0 1.636 0v-3.095a.818.818 0 0 0-.818-.818zm2.242-4.226a.818.818 0 0 0-.818.818v7.321a.818.818 0 0 0 1.636 0v-7.321a.818.818 0 0 0-.818-.818zm2.242 3.01a.818.818 0 0 0-.818.818v4.31a.818.818 0 0 0 1.636 0v-4.31a.818.818 0 0 0-.818-.818zm.815-9.862a5.752 5.752 0 0 0 1.683-4.065 5.786 5.786 0 0 0-5.78-5.78h-35.28a5.786 5.786 0 0 0-5.78 5.78 5.786 5.786 0 0 0 5.78 5.78h25.473a11.506 11.506 0 0 0-1.528 1.902H68.915a5.786 5.786 0 0 0-5.78 5.779 5.786 5.786 0 0 0 5.78 5.78h16.823v6.919a3.38 3.38 0 0 0-2.45 2.45h-9.595a.818.818 0 0 0 0 1.636h9.594a3.375 3.375 0 0 0 3.269 2.555c1.577 0 2.9-1.09 3.267-2.555h9.596a.818.818 0 0 0 0-1.636h-9.596a3.38 3.38 0 0 0-2.449-2.45v-6.92h5.014c1.926 3.585 5.713 6.03 10.06 6.03 6.295 0 11.416-5.121 11.416-11.416 0-4.158-2.242-7.793-5.572-9.789zm-20 25.363c0 .958-.779 1.737-1.736 1.737-.958 0-1.737-.78-1.737-1.737 0-.958.779-1.738 1.737-1.738.957.001 1.736.78 1.736 1.738zm3.386-11.824H68.915a4.149 4.149 0 0 1-4.144-4.144 4.149 4.149 0 0 1 4.144-4.143h23.063a11.349 11.349 0 0 0-.945 4.537c0 1.315.234 2.573.645 3.75zM68.915 85.863a4.149 4.149 0 0 1-4.144-4.144 4.148 4.148 0 0 1 4.144-4.144h35.28a4.149 4.149 0 0 1 4.144 4.144 4.124 4.124 0 0 1-1.618 3.276 11.326 11.326 0 0 0-10.261.878c-.034-.005-.068-.01-.104-.01h-27.44zm33.533 19.49c-5.393 0-9.78-4.387-9.78-9.78 0-5.392 4.387-9.78 9.78-9.78s9.78 4.388 9.78 9.78c0 5.393-4.387 9.78-9.78 9.78zM68.915 74.038h35.28a5.786 5.786 0 0 0 5.78-5.78 5.786 5.786 0 0 0-5.78-5.779h-35.28a5.786 5.786 0 0 0-5.78 5.779 5.786 5.786 0 0 0 5.78 5.78zm0-9.923h35.28a4.149 4.149 0 0 1 4.144 4.143 4.149 4.149 0 0 1-4.144 4.144h-35.28a4.149 4.149 0 0 1-4.144-4.144 4.149 4.149 0 0 1 4.144-4.143zm.02 7.268a3.21 3.21 0 0 0 3.207-3.206 3.211 3.211 0 0 0-3.208-3.207 3.21 3.21 0 0 0-3.206 3.207 3.21 3.21 0 0 0 3.206 3.206zm0-4.777c.866 0 1.57.705 1.57 1.571 0 .867-.704 1.571-1.57 1.571a1.572 1.572 0 0 1 0-3.142zm0 11.825a3.21 3.21 0 0 0-3.207 3.207 3.21 3.21 0 0 0 3.206 3.207 3.211 3.211 0 0 0 3.208-3.207 3.21 3.21 0 0 0-3.208-3.207zm0 4.778c-.867 0-1.571-.705-1.571-1.571a1.572 1.572 0 0 1 3.142 0c0 .866-.705 1.571-1.572 1.571zm0 8.684a3.21 3.21 0 0 0-3.207 3.206 3.21 3.21 0 0 0 3.206 3.207 3.21 3.21 0 0 0 3.208-3.207 3.21 3.21 0 0 0-3.208-3.206zm0 4.777c-.867 0-1.571-.705-1.571-1.571a1.572 1.572 0 0 1 3.142 0c0 .866-.705 1.57-1.572 1.57z" id="b"/><filter x="-42.4%" y="-27.9%" width="184.8%" height="182.6%" filterUnits="objectBoundingBox" id="a"><feMorphology radius="2" operator="dilate" in="SourceAlpha" result="shadowSpreadOuter1"/><feOffset dy="7" in="shadowSpreadOuter1" result="shadowOffsetOuter1"/><feGaussianBlur stdDeviation="4" in="shadowOffsetOuter1" result="shadowBlurOuter1"/><feColorMatrix values="0 0 0 0 0.0390890731 0 0 0 0 0.0390890731 0 0 0 0 0.0390890731 0 0 0 0.310999774 0" in="shadowBlurOuter1"/></filter></defs><g transform="translate(-51 -57)" fill="none" fill-rule="evenodd"><use fill="#000" filter="url(#a)" xlink:href="#b"/><use fill="url(#c)" xlink:href="#b"/></g></svg>