<svg width="87" height="77" viewBox="0 0 87 77" xmlns="http://www.w3.org/2000/svg" xmlns:xlink="http://www.w3.org/1999/xlink"><title>Shape</title><defs><linearGradient x1="100%" y1="0%" x2="50%" y2="98.28%" id="c"><stop stop-color="#F77537" offset="0%"/><stop stop-color="#E84C1C" offset="56.137%"/><stop stop-color="#CF3F3C" offset="100%"/></linearGradient><path d="M64.387 117.69l5.514-.254a2.929 2.929 0 0 0 2.465-1.537c.387.337.884.525 1.398.527h.095l23.328 1.55h.896c3.069 0 6.064-.94 8.583-2.694l14.802-10.419a2.884 2.884 0 0 0 .432-4.358l-.064-.063a2.929 2.929 0 0 0-3.653-.451c-4.644 2.84-13.785 8.328-13.785 8.328a7.624 7.624 0 0 1-3.78 1.106l-10.388.05a.692.692 0 0 1-.057-1.378l10.629-.19a2.49 2.49 0 0 0 .082-4.95l-6.295-.463-4.708-.832a13.868 13.868 0 0 1-3.018-.8c-7.903-3.177-12.706-1.437-15.247-.636a2.967 2.967 0 0 0-2.643-1.366l-5.495.248a3.234 3.234 0 0 0-3.176 3.341l.635 12.198a3.272 3.272 0 0 0 3.45 3.043zm2.14-6.474a1.804 1.804 0 1 1-1.905 1.76 1.836 1.836 0 0 1 1.906-1.76zm37.845-7.985l8.615-4.447a2.738 2.738 0 0 1 3.176.38c-3.812 2.345-8.259 5.032-11.187 6.837a4.206 4.206 0 0 0-.578-2.739l-.026-.031zm4.797-5.527a2.77 2.77 0 0 1 1.524.476l-7.56 3.761a4.193 4.193 0 0 0-2.14-.73l-1.074-.077 8.125-3.176a2.77 2.77 0 0 1 1.125-.254zM80.358 84.947l2.541.445c.296 1.111.736 2.18 1.309 3.176l-1.48 2.11a1.95 1.95 0 0 0 .216 2.496l1.512 1.525a1.95 1.95 0 0 0 2.496.216l2.11-1.487a13.106 13.106 0 0 0 3.176 1.309l.445 2.541a1.95 1.95 0 0 0 1.906 1.614h2.147a1.95 1.95 0 0 0 1.906-1.614l.444-2.541a13.08 13.08 0 0 0 3.177-1.309l2.11 1.48a1.95 1.95 0 0 0 2.477-.21l1.518-1.518a1.95 1.95 0 0 0 .216-2.496l-1.48-2.11a13.125 13.125 0 0 0 1.309-3.176l2.54-.445a1.95 1.95 0 0 0 1.614-1.906v-2.172a1.95 1.95 0 0 0-1.613-1.906l-2.541-.445a13.119 13.119 0 0 0-1.31-3.176l1.481-2.11a1.95 1.95 0 0 0-.216-2.496l-1.518-1.519a1.95 1.95 0 0 0-2.497-.216l-2.11 1.48a13.106 13.106 0 0 0-3.176-1.308l-.444-2.541a1.95 1.95 0 0 0-1.906-1.614h-2.135a1.95 1.95 0 0 0-1.906 1.614l-.444 2.54c-1.112.296-2.18.736-3.177 1.31l-2.109-1.48a1.95 1.95 0 0 0-2.497.215l-1.518 1.519a1.95 1.95 0 0 0-.216 2.496l1.48 2.11a13.144 13.144 0 0 0-1.309 3.176l-2.54.445a1.95 1.95 0 0 0-1.614 1.906v2.147a1.95 1.95 0 0 0 1.626 1.925zm15.298-8.837a5.845 5.845 0 1 1 0 11.69 5.845 5.845 0 0 1 0-11.69z" id="b"/><filter x="-34.5%" y="-27.4%" width="168.9%" height="181.2%" filterUnits="objectBoundingBox" id="a"><feMorphology radius="2" operator="dilate" in="SourceAlpha" result="shadowSpreadOuter1"/><feOffset dy="7" in="shadowSpreadOuter1" result="shadowOffsetOuter1"/><feGaussianBlur stdDeviation="4" in="shadowOffsetOuter1" result="shadowBlurOuter1"/><feColorMatrix values="0 0 0 0 0.0390890731 0 0 0 0 0.0390890731 0 0 0 0 0.0390890731 0 0 0 0.310999774 0" in="shadowBlurOuter1"/></filter></defs><g transform="translate(-48 -60)" fill="none" fill-rule="evenodd"><use fill="#000" filter="url(#a)" xlink:href="#b"/><use fill="url(#c)" xlink:href="#b"/></g></svg>