<svg width="77" height="77" viewBox="0 0 77 77" xmlns="http://www.w3.org/2000/svg" xmlns:xlink="http://www.w3.org/1999/xlink"><title>Shape</title><defs><linearGradient x1="100%" y1="0%" x2="50%" y2="98.28%" id="c"><stop stop-color="#F77537" offset="0%"/><stop stop-color="#E84C1C" offset="56.137%"/><stop stop-color="#CF3F3C" offset="100%"/></linearGradient><path d="M114.056 85.894c-1.862-9.53-9.42-17.088-18.95-18.95-.178-1.752-1.645-3.13-3.446-3.13h-2.32c-1.801 0-3.268 1.378-3.446 3.13-9.53 1.86-17.088 9.42-18.95 18.95-1.752.178-3.13 1.645-3.13 3.446v2.32c0 1.801 1.378 3.268 3.13 3.446 1.862 9.53 9.42 17.088 18.95 18.95.178 1.754 1.645 3.13 3.446 3.13h2.32c1.801 0 3.268-1.378 3.446-3.13 9.53-1.862 17.088-9.42 18.95-18.95 1.754-.178 3.13-1.645 3.13-3.446v-2.32c0-1.799-1.378-3.268-3.13-3.446zM95.323 68.958c8.31 1.82 14.9 8.409 16.719 16.72h-8.175a14.124 14.124 0 0 0-8.544-8.545v-8.175zm-7.074-1.403c0-.645.505-1.169 1.126-1.169h2.25c.621 0 1.126.524 1.126 1.17v10.522c0 .645-.505 1.169-1.126 1.169h-2.25c-.621 0-1.126-.524-1.126-1.17V67.556zm-2.572 1.403v8.175a14.13 14.13 0 0 0-8.544 8.544h-8.175c1.82-8.31 8.409-14.9 16.72-16.719zm-19.29 22.667v-2.25c0-.621.523-1.126 1.168-1.126h10.523c.645 0 1.169.505 1.169 1.126v2.25c0 .621-.524 1.126-1.17 1.126H67.556c-.645 0-1.169-.505-1.169-1.126zm19.29 20.417c-8.31-1.82-14.9-8.409-16.719-16.72h8.175a14.124 14.124 0 0 0 8.544 8.545v8.175zm7.074 2.046c0 .645-.505 1.169-1.126 1.169h-2.25c-.621 0-1.126-.524-1.126-1.17v-10.522c0-.645.505-1.169 1.126-1.169h2.25c.621 0 1.126.524 1.126 1.17v10.522zm1.078-13.623a3.4 3.4 0 0 0-2.837-1.53h-2.27c-1.184 0-2.228.61-2.837 1.532a11.407 11.407 0 0 1-6.636-6.636 3.408 3.408 0 0 0 1.53-2.84v-2.269c0-1.184-.61-2.228-1.532-2.837a11.401 11.401 0 0 1 6.636-6.636c.61.92 1.655 1.53 2.84 1.53h2.269c1.184 0 2.228-.61 2.837-1.532a11.401 11.401 0 0 1 6.636 6.636 3.408 3.408 0 0 0-1.53 2.84v2.269c0 1.184.61 2.228 1.532 2.837a11.399 11.399 0 0 1-6.638 6.636zm1.494 11.577v-8.175a14.124 14.124 0 0 0 8.544-8.544h8.175c-1.82 8.31-8.409 14.9-16.72 16.719zm19.934-20.417c0 .621-.524 1.126-1.17 1.126h-10.522c-.645 0-1.169-.505-1.169-1.126v-2.25c0-.621.524-1.126 1.17-1.126h10.522c.645 0 1.169.505 1.169 1.126v2.25z" id="b"/><filter x="-40.3%" y="-27.2%" width="180.6%" height="180.6%" filterUnits="objectBoundingBox" id="a"><feMorphology radius="2" operator="dilate" in="SourceAlpha" result="shadowSpreadOuter1"/><feOffset dy="7" in="shadowSpreadOuter1" result="shadowOffsetOuter1"/><feGaussianBlur stdDeviation="4" in="shadowOffsetOuter1" result="shadowBlurOuter1"/><feColorMatrix values="0 0 0 0 0.0390890731 0 0 0 0 0.0390890731 0 0 0 0 0.0390890731 0 0 0 0.310999774 0" in="shadowBlurOuter1"/></filter></defs><g transform="translate(-52 -59)" fill="none" fill-rule="evenodd"><use fill="#000" filter="url(#a)" xlink:href="#b"/><use fill="url(#c)" xlink:href="#b"/></g></svg>