<svg width="49" height="64" viewBox="0 0 49 64" xmlns="http://www.w3.org/2000/svg" xmlns:xlink="http://www.w3.org/1999/xlink"><title>Shape</title><defs><linearGradient x1="100%" y1="0%" x2="50%" y2="98.28%" id="c"><stop stop-color="#F77537" offset="0%"/><stop stop-color="#E84C1C" offset="56.137%"/><stop stop-color="#CF3F3C" offset="100%"/></linearGradient><path d="M70.056 50.535s1.022 4.241 1.022 7.634c0 3.223-2.215 5.938-5.452 5.938-3.238 0-5.793-2.715-5.793-5.938v-.509c-3.238 3.902-5.112 8.822-5.112 14.081 0 6.956 5.793 12.724 12.779 12.724s12.78-5.768 12.78-12.724c0-8.652-3.92-16.286-10.224-21.206zm-2.292 28.202c-2.896 0-5.111-2.166-5.111-4.831 0-2.5 1.704-4.332 4.43-4.831 2.896-.5 5.793-1.833 7.327-3.999.681 2 1.022 4.165 1.022 6.33 0 3.999-3.408 7.33-7.668 7.33z" id="b"/><filter x="-84.1%" y="-42.7%" width="268.2%" height="226.7%" filterUnits="objectBoundingBox" id="a"><feMorphology radius="2" operator="dilate" in="SourceAlpha" result="shadowSpreadOuter1"/><feOffset dy="7" in="shadowSpreadOuter1" result="shadowOffsetOuter1"/><feGaussianBlur stdDeviation="4" in="shadowOffsetOuter1" result="shadowBlurOuter1"/><feColorMatrix values="0 0 0 0 0.0390890731 0 0 0 0 0.0390890731 0 0 0 0 0.0390890731 0 0 0 0.310999774 0" in="shadowBlurOuter1"/></filter></defs><g transform="translate(-43 -40)" fill="none" fill-rule="evenodd"><use fill="#000" filter="url(#a)" xlink:href="#b"/><use fill="url(#c)" xlink:href="#b"/></g></svg>