<svg width="33" height="59" viewBox="0 0 33 59" xmlns="http://www.w3.org/2000/svg"><title>Shape</title><path d="M16.505 1.056L.5 9.58v39.016l16.005 9.347 5.273-3.096v-6.512l6.843-2.816v5.35l3.879-2.264V9.6L16.505 1.056zm-2.222 14.089v2.196l-11.55 2.574v-1.664l11.55-3.106zm4.444.02l11.56 3.086v1.674l-11.56-2.584v-2.177zm11.56 13.14v1.674l-11.56.551v-2.177l11.56-.048zm-27.555.01l11.55.029v2.196l-11.55-.561v-1.664zm0 10.063l11.55 3.165v2.196l-11.55-3.687v-1.674z" stroke="#FFF" fill="none" fill-rule="evenodd"/></svg>