<svg width="69" height="43" viewBox="0 0 69 43" xmlns="http://www.w3.org/2000/svg"><title>noun_396430_cc</title><g stroke="#FFF" stroke-width="1.5" fill="none" fill-rule="evenodd"><path d="M31.335 31.466a3.408 3.408 0 0 1-3.829-5l8.003-13.825a3.41 3.41 0 0 1 5.899 3.416L33.407 29.88a3.396 3.396 0 0 1-2.072 1.586zM30.75 11.387a3.41 3.41 0 0 0-4.658 1.243l-3.017 5.211H1.031v6.818H19.13l-3.7 6.393 2.484 9.315 14.079-24.322a3.41 3.41 0 0 0-1.243-4.658z"/><path d="M25.346 10.896L11.598 3.013l2.524 9.306 7.831 4.491zM49.724 17.848l3.701-6.393-2.484-9.316-14.08 24.322a3.409 3.409 0 0 0 5.9 3.415l3.017-5.21h22.044v-6.818H49.724z"/><path d="M43.509 31.651l13.746 7.883-2.522-9.304-7.833-4.492z"/></g></svg>