<svg width="59" height="39" viewBox="0 0 59 39" xmlns="http://www.w3.org/2000/svg"><title>noun_6818_cc</title><g fill="none" fill-rule="evenodd"><path d="M20.31 35.935l.755-10.882c0-4.293 3.63-7.786 8.094-7.786 4.462 0 8.093 3.493 8.093 7.786l1.417 10.882c8.255-3.206 12.685-10.532 12.685-19.85H6.964c0 9.318 5.09 16.643 13.346 19.85z" stroke="#FFF"/><path d="M53.916 13.572c-.197.63-.898 1.148-1.56 1.148H6.644c-.662 0-1.364-.517-1.56-1.148L1.552 2.209c-.197-.631.185-1.148.846-1.148h54.204c.662 0 1.042.517.846 1.148l-3.532 11.363zM22.009 36.581a.696.696 0 0 1-.021-.008l.021.008z" stroke="#FFF" stroke-width="2"/><path d="M29.5 17.451c-4.142 0-7.512 3.279-7.512 7.31v11.864a22.029 22.029 0 0 0 7.512 1.314c2.637 0 5.166-.465 7.512-1.314V24.76c0-4.03-3.37-7.309-7.512-7.309zm0 12.774c-3.074 0-5.574-2.452-5.574-5.465 0-3.015 2.5-5.467 5.574-5.467 3.073 0 5.574 2.452 5.574 5.467-.001 3.013-2.501 5.465-5.574 5.465z" stroke="#FFF"/><path d="M37.033 36.573l-.02.008.02-.008z" fill="#FC4201"/><path d="M29.5 20.32a4.444 4.444 0 0 0-4.44 4.439 4.444 4.444 0 0 0 4.44 4.439 4.444 4.444 0 0 0 4.439-4.439 4.444 4.444 0 0 0-4.44-4.44zm0 8.29c-2.132 0-3.866-1.728-3.866-3.852a3.863 3.863 0 0 1 3.866-3.852 3.863 3.863 0 0 1 3.865 3.852c0 2.124-1.734 3.852-3.865 3.852z" stroke="#FFF" stroke-width=".5"/><path d="M29.5 22.369a2.39 2.39 0 1 0 0 4.78 2.39 2.39 0 0 0 0-4.78zm1.466 3.443c-.035.072-.005-.831-.444-1.448-.524-.737-1.46-1.004-1.023-1.23 1.14-.588 2.298.97 1.467 2.678z" stroke="#FFF"/></g></svg>