<svg width="77" height="114" viewBox="0 0 77 114" xmlns="http://www.w3.org/2000/svg"><title>multicarrier</title><g fill="#FC4201" fill-rule="evenodd"><path d="M48.8 102.6c2 0 3.6 1.6 3.6 3.6s-1.6 3.6-3.6 3.6-3.6-1.6-3.6-3.6 1.6-3.6 3.6-3.6zm16.8 3.6c0 2 1.6 3.6 3.6 3.6s3.6-1.6 3.6-3.6-1.6-3.6-3.6-3.6-3.6 1.6-3.6 3.6zm-20.1-6.3l-7-7-7 7c2.2 1.2 3.7 3.5 3.7 6.2 0 3.9-3.2 7.1-7.1 7.1-3.9 0-7.1-3.2-7.1-7.1 0-2.8 1.6-5.2 3.9-6.3L18.1 93l-7 7c2.2 1.2 3.7 3.5 3.7 6.2 0 3.9-3.2 7.1-7.1 7.1-3.9 0-7.1-3.2-7.1-7.1 0-3.9 3.2-7.1 7.1-7.1.8 0 1.6.1 2.4.4l7.3-7.3-1.1-1.1c-.4-.4-.7-1-.7-1.6 0-.6.2-1.2.7-1.6l9.3-9.1 2-2-1.1-1.1c-.4-.4-.7-1-.7-1.6 0-.6.2-1.2.7-1.6l6.5-6.2 4.9-4.9-1-1c-.4-.4-.7-1-.7-1.6 0-.6.2-1.1.7-1.6l.6-.6.5-.4-1.1-1.1c-.4-.4-.7-1-.7-1.6 0-.6.2-1.1.7-1.6l1.1-1.1-3-3 .7-.7 3 3 3.1-3.1.7.7-3.1 3.1 1 1c.9.9.9 2.3 0 3.2l-.5.5-.7.7 1.2 1c.4.4.7 1 .7 1.6 0 .6-.2 1.2-.7 1.6l-1.1 1.1 8.6 8.6.9.9.7.7.9.9c.4.4.7 1 .7 1.6 0 .6-.2 1.2-.7 1.6l-1 1 .7.7.2.2L60.8 88c.9.9.9 2.3 0 3.2l-1.1 1.1 7.3 7.3c.7-.2 1.5-.4 2.3-.4 3.9 0 7.1 3.2 7.1 7.1 0 3.9-3.2 7.1-7.1 7.1-3.9 0-7.1-3.2-7.1-7.1 0-2.7 1.5-5.1 3.8-6.2l-7-7-6.9 6.9c2.3 1.2 3.9 3.5 3.9 6.3 0 3.9-3.2 7.1-7.1 7.1-3.9 0-7.1-3.2-7.1-7.1-.1-2.8 1.4-5.2 3.7-6.4zm3.3 1.7c-2.5 0-4.6 2.1-4.6 4.6 0 2.5 2.1 4.6 4.6 4.6 2.5 0 4.6-2.1 4.6-4.6 0-2.5-2.1-4.6-4.6-4.6zm20.4 0c-2.5 0-4.6 2.1-4.6 4.6 0 2.5 2.1 4.6 4.6 4.6 2.5 0 4.6-2.1 4.6-4.6 0-2.5-2.1-4.6-4.6-4.6zM38.6 55.3l1.1-1.1c.5-.5.5-1.2 0-1.7l-1-1-1.1 1.1c-.5.5-.5 1.2 0 1.7l.6.6.4.4zm0 5.4l1.1-1.1c.2-.2.4-.5.4-.9 0-.3-.1-.6-.4-.9l-1-1-1.1 1.1c-.5.5-.5 1.2 0 1.7l1 1.1zM7.7 101.6c-2.5 0-4.6 2.1-4.6 4.6 0 2.5 2.1 4.6 4.6 4.6 2.5 0 4.6-2.1 4.6-4.6 0-2.5-2.1-4.6-4.6-4.6zm2.9-1.8s-.1 0 0 0c-.1 0 0 0 0 0zm17.5 1.8c-2.5 0-4.6 2.1-4.6 4.6 0 2.5 2.1 4.6 4.6 4.6 2.5 0 4.6-2.1 4.6-4.6 0-2.5-2.1-4.6-4.6-4.6zm30.8-14l-1.1 1.1c-.2.2-.4.5-.4.9 0 .3.1.6.4.9l1.1 1.1 1.1-1.2c.2-.2.4-.5.4-.9 0-.3-.1-.6-.4-.9l-1.1-1zm-10-15.2l-1 1c-.2.2-.4.5-.4.9 0 .3.1.6.4.9l1 1 1-1c.5-.5.5-1.2 0-1.7l-1-1.1zm-20.6 3.8l1.1-1.1c.2-.2.4-.5.4-.9 0-.3-.1-.6-.4-.9l-1.1-1.1-1.1 1.1c-.2.2-.4.5-.4.9 0 .3.1.6.4.9l1.1 1.1zm1.7 1.4l8.5 8.5 8.8-8.5c.3-.3.7-.5 1.1-.6l-1.2-1.2c-.4-.4-.7-1-.7-1.6 0-.6.2-1.2.7-1.6l1-1-8.6-8.6c-.5-.5-1.2-.5-1.7 0l-4.1 4-3.7 3.7-.9.9 1.1 1c.4.4.7 1 .7 1.6 0 .6-.2 1.2-.7 1.6L29.1 77c.2.1.6.3.9.6zM18.1 91.5l1.1-1.1c.5-.5.5-1.2 0-1.7l-1.1-1.1-1.1 1.1c-.2.2-.4.5-.4.9 0 .3.1.6.4.9l1.1 1zm19.7.7l-1.1-1.1c-.4-.4-.7-1-.7-1.6 0-.6.2-1.2.7-1.6l1.1-1.1-8.5-8.5c-.5-.5-1.2-.5-1.7 0l-1.3 1.3-6.7 6.7-.7.7 1 1c.9.9.9 2.3 0 3.2l-1.1 1.1 7.2 7.2c.7-.2 1.4-.3 2.1-.3.8 0 1.6.1 2.4.4l7.3-7.4zm-6.9 7.5c.1.1.1.1 0 0 .1.1.1.1 0 0zm6.5-11c-.2.2-.4.5-.4.9 0 .3.1.6.4.9l1.1 1.1 1.1-1.1c.2-.2.4-.5.4-.9 0-.3-.1-.6-.4-.9l-1.1-1.1-1.1 1.1zm9.1 10.8c.7-.2 1.5-.4 2.3-.4.8 0 1.5.1 2.2.3l7.2-7.2-1.1-1.1c-.4-.4-.7-1-.7-1.6 0-.6.2-1.2.7-1.6l1.1-1.1-.6-.6-8-8c-.5-.3-1.1-.3-1.6.1l-8.8 8.5 1.1 1.1c.9.9.9 2.3 0 3.2l-1.1 1.1 7.3 7.3zm-42.4 6.7c0 2 1.6 3.6 3.6 3.6s3.6-1.6 3.6-3.6-1.6-3.6-3.6-3.6-3.6 1.6-3.6 3.6zm20.4 0c0 2 1.6 3.6 3.6 3.6s3.6-1.6 3.6-3.6-1.6-3.6-3.6-3.6-3.6 1.6-3.6 3.6z"/><path d="M60.6 43.5l3.3-4c.3-.4.6-.8.8-1.2 1.1-1.6 1.8-2.6 1.8-5.2V18.9c0-2.9-.8-4.1-2.2-5.9-.2-.3-.5-.6-.7-1l-3.3-3.8c-1.1-1.6-2.7-2.8-4.7-3.3-.4-2.7-2.7-4.9-5.5-4.9-.8 0-1.6.2-2.3.5-.7-.3-1.4-.5-2.3-.5-2.7 0-5 2-5.3 4.7H23.3c-4.4 0-7.9 3.5-7.9 7.9V40c0 4.4 3.5 7.9 7.9 7.9h30.4c3 0 5.7-1.8 6.9-4.4zm2.1-30.9c.3.4.5.7.7 1 1.4 1.8 2 2.7 2 5.3v14.3c0 2.3-.5 3-1.6 4.6-.2.3-.5.7-.8 1.2l-1.7 2.1V12.3c0-.5 0-.9-.1-1.4l1.5 1.7zm-3.5-4.1l.2.2c.7 1 1 2.2 1 3.5v27.9c0 1-.2 1.9-.6 2.8l-.1.1c-1.1 2.2-3.3 3.7-5.9 3.7h-3.1v-41h3.1c2.2 0 4.2 1.1 5.4 2.8zM45.9 4.7c.2-1.3.9-2.3 2-3 1 .7 1.8 1.7 2 3h-4zm-8 1v41.2H27.4V5.7h10.5zm1 0h10.7v41.2H38.9V5.7zM50.1 1c2.2 0 4 1.6 4.3 3.7h-3.6c-.1-1.4-.8-2.7-1.9-3.5.4-.1.8-.2 1.2-.2zm-4.6 0c.4 0 .8.1 1.2.2-1 .8-1.8 2.1-1.9 3.5h-3.6c.4-2.1 2.2-3.7 4.3-3.7zm-29 39V12.6c0-3.8 3.1-6.9 6.9-6.9h3v41.2h-3c-3.8-.1-6.9-3.1-6.9-6.9zm30.8.9V36c0-1.1-.9-2-2-2h-2c-1.1 0-2 .9-2 2v4.9c0 1.1.9 2 2 2h2c1 0 2-.9 2-2zm-4.1 1c-.6 0-1-.5-1-1V36c0-.6.5-1 1-1h2c.6 0 1 .5 1 1v4.9c0 .6-.5 1-1 1h-2zm-7.2-1V36c0-1.1-.9-2-2-2h-2c-1.1 0-2 .9-2 2v4.9c0 1.1.9 2 2 2h2c1.1 0 2-.9 2-2zm-4 1c-.6 0-1-.5-1-1V36c0-.6.5-1 1-1h2c.6 0 1 .5 1 1v4.9c0 .6-.5 1-1 1h-2zm9.9-24.4c-.4 0-.6-.3-.6-.6s.3-.6.6-.6c.4 0 .6.3.6.6s-.3.6-.6.6zm0-2.8c-.4 0-.6-.3-.6-.6s.3-.6.6-.6c.4 0 .6.3.6.6s-.3.6-.6.6zm0-2.8c-.4 0-.6-.3-.6-.6 0-.4.3-.6.6-.6.4 0 .6.3.6.6s-.3.6-.6.6zm0-2.8c-.4 0-.6-.3-.6-.6 0-.4.3-.6.6-.6.4 0 .6.3.6.6s-.3.6-.6.6zm0 19.6c-.4 0-.6-.3-.6-.6s.3-.6.6-.6c.4 0 .6.3.6.6s-.3.6-.6.6zm0-8.4c-.4 0-.6-.3-.6-.6s.2-.7.6-.7c.4 0 .6.3.6.6s-.3.7-.6.7zm0 5.6c-.4 0-.6-.3-.6-.6s.3-.6.6-.6c.4 0 .6.3.6.6s-.3.6-.6.6zm0-2.8c-.4 0-.6-.3-.6-.6s.3-.6.6-.6c.4 0 .6.3.6.6s-.3.6-.6.6zm2.3 4.1c-.4 0-.6-.3-.6-.6s.3-.6.6-.6.6.3.6.6-.3.6-.6.6zm0-2.8c-.4 0-.6-.3-.6-.6 0-.4.3-.6.6-.6s.6.3.6.6-.3.6-.6.6zm0 5.6c-.4 0-.6-.3-.6-.6 0-.4.3-.6.6-.6s.6.3.6.6-.3.6-.6.6zm0-19.7c-.4 0-.6-.3-.6-.6 0-.4.3-.6.6-.6s.6.3.6.6-.3.6-.6.6zm0 5.6c-.4 0-.6-.3-.6-.6 0-.4.3-.6.6-.6s.6.3.6.6c0 .4-.3.6-.6.6zm0 5.7c-.4 0-.6-.3-.6-.6 0-.4.3-.6.6-.6s.6.3.6.6-.3.6-.6.6zm0-2.9c-.4 0-.6-.3-.6-.6s.3-.6.6-.6.6.3.6.6-.3.6-.6.6zm0-5.6c-.4 0-.6-.3-.6-.6 0-.4.3-.6.6-.6s.6.3.6.6c0 .4-.3.6-.6.6zm2.5-2.3c.4 0 .6.3.6.6 0 .4-.3.6-.6.6-.4 0-.6-.3-.6-.6s.3-.6.6-.6zm0 21c-.4 0-.6-.3-.6-.6 0-.4.3-.6.6-.6.4 0 .6.3.6.6.1.3-.2.6-.6.6zm0-18.2c.4 0 .6.3.6.6 0 .4-.3.6-.6.6-.4 0-.6-.3-.6-.6s.3-.6.6-.6zm0 5.7c.4 0 .6.3.6.6 0 .4-.3.6-.6.6-.4 0-.6-.3-.6-.6 0-.4.3-.6.6-.6zm0-2.8c.4 0 .6.3.6.6 0 .4-.3.6-.6.6-.4 0-.6-.3-.6-.6 0-.4.3-.6.6-.6zm0 5.6c.4 0 .6.3.6.6 0 .4-.3.6-.6.6-.4 0-.6-.3-.6-.6s.3-.6.6-.6zm0 5.6c.4 0 .6.3.6.6 0 .4-.3.6-.6.6-.4 0-.6-.3-.6-.6s.3-.6.6-.6zm0-2.8c.4 0 .6.3.6.6 0 .4-.3.6-.6.6-.4 0-.6-.3-.6-.6s.3-.6.6-.6zM30.1 14.7c-.4 0-.6-.3-.6-.6s.3-.6.6-.6c.4 0 .6.3.6.6s-.2.6-.6.6zm0 2.8c-.4 0-.6-.3-.6-.6s.3-.6.6-.6c.4 0 .6.3.6.6s-.2.6-.6.6zm0-8.4c-.4 0-.6-.3-.6-.6 0-.4.3-.6.6-.6.4 0 .6.3.6.6.1.3-.2.6-.6.6zm0 11.2c-.4 0-.6-.3-.6-.6s.3-.7.6-.7c.4 0 .6.3.6.6s-.2.7-.6.7zm0-8.4c-.4 0-.6-.3-.6-.6 0-.4.3-.6.6-.6.4 0 .6.3.6.6.1.3-.2.6-.6.6zm0 11.2c-.4 0-.6-.3-.6-.6s.3-.6.6-.6c.4 0 .6.3.6.6s-.2.6-.6.6zm0 5.6c-.4 0-.6-.3-.6-.6s.3-.6.6-.6c.4 0 .6.3.6.6s-.2.6-.6.6zm0-2.8c-.4 0-.6-.3-.6-.6s.3-.6.6-.6c.4 0 .6.3.6.6s-.2.6-.6.6zm2.3-10c-.4 0-.6-.3-.6-.6 0-.4.3-.6.6-.6.4 0 .6.3.6.6.1.4-.2.6-.6.6zm0 14.1c-.4 0-.6-.3-.6-.6 0-.4.3-.6.6-.6.4 0 .6.3.6.6.1.3-.2.6-.6.6zm0-2.8c-.4 0-.6-.3-.6-.6 0-.4.3-.6.6-.6.4 0 .6.3.6.6.1.3-.2.6-.6.6zm0-8.5c-.4 0-.6-.3-.6-.6s.3-.6.6-.6c.4 0 .6.3.6.6s-.2.6-.6.6zm0 5.7c-.4 0-.6-.3-.6-.6 0-.4.3-.6.6-.6.4 0 .6.3.6.6.1.3-.2.6-.6.6zm0-11.3c-.4 0-.6-.3-.6-.6 0-.4.3-.6.6-.6.4 0 .6.3.6.6.1.4-.2.6-.6.6zm0-2.8c-.4 0-.6-.3-.6-.6 0-.4.3-.6.6-.6.4 0 .6.3.6.6.1.3-.2.6-.6.6zm0 11.3c-.4 0-.6-.3-.6-.6s.3-.6.6-.6c.4 0 .6.3.6.6s-.2.6-.6.6zm2.6 6.1c.4 0 .6.3.6.6 0 .4-.3.6-.6.6s-.6-.3-.6-.6.2-.6.6-.6zm0 4.1c-.4 0-.6-.3-.6-.6 0-.4.3-.6.6-.6s.6.3.6.6-.2.6-.6.6zm0-6.9c.4 0 .6.3.6.6 0 .4-.3.6-.6.6s-.6-.3-.6-.6.2-.6.6-.6zm0-11.3c.4 0 .6.3.6.6 0 .4-.3.6-.6.6s-.6-.3-.6-.6.2-.6.6-.6zm0-2.8c.4 0 .6.3.6.6 0 .4-.3.6-.6.6s-.6-.3-.6-.6.2-.6.6-.6zm0 5.7c.4 0 .6.3.6.6 0 .4-.3.6-.6.6s-.6-.3-.6-.6c0-.4.2-.6.6-.6zm0 2.8c.4 0 .6.3.6.6 0 .4-.3.6-.6.6s-.6-.3-.6-.6c0-.4.2-.6.6-.6zm0 2.8c.4 0 .6.3.6.6 0 .4-.3.6-.6.6s-.6-.3-.6-.6.2-.6.6-.6zm20.9 13.2c.5 0 .9.4.9.9s-.4.9-.9.9-.9-.4-.9-.9.4-.9.9-.9zm0 3.1c.9 0 1.6.7 1.6 1.6 0 .9-.7 1.6-1.6 1.6-.9 0-1.6-.7-1.6-1.6 0-.9.7-1.6 1.6-1.6z"/></g></svg>