<svg width="50" height="52" viewBox="0 0 50 52" xmlns="http://www.w3.org/2000/svg"><title>noun_478140_cc</title><g fill="#FFF" fill-rule="evenodd"><path d="M15.92 11.364v34.363c0 .546.363.91.909.91.545 0 .909-.364.909-.91V11.364c0-4-2.091-7.546-5.182-9.546H15.465a9.544 9.544 0 0 1 9.546 9.546v34.363c0 .546.363.91.909.91.545 0 .909-.364.909-.91V11.364c0-4-2.091-7.546-5.182-9.546h2.909a9.544 9.544 0 0 1 9.545 9.546v34.363c0 .546.364.91.91.91.545 0 .909-.364.909-.91V11.364c0-4-2.091-7.546-5.182-9.546h2.909a9.544 9.544 0 0 1 9.545 9.546v34.363c0 .546.364.91.91.91.545 0 .909-.364.909-.91V11.364C45.01 5.09 39.92 0 33.647 0H1.01C.465 0 .1.364.1.91c0 .545.364.908.91.908h5.363a9.544 9.544 0 0 1 9.546 9.546z"/><path d="M48.283 45.545c-.545 0-.909.364-.909.91 0 2-1.636 3.636-3.636 3.636S40.1 48.455 40.1 46.455c0-.546-.363-.91-.909-.91-.545 0-.909.364-.909.91 0 2-1.636 3.636-3.636 3.636s-3.636-1.636-3.636-3.636c0-.546-.364-.91-.91-.91-.545 0-.909.364-.909.91 0 2-1.636 3.636-3.636 3.636s-3.636-1.636-3.636-3.636c0-.546-.364-.91-.91-.91-.545 0-.909.364-.909.91 0 2-1.636 3.636-3.636 3.636s-3.636-1.636-3.636-3.636c0-.546-.364-.91-.91-.91-.545 0-.908.364-.908.91 0 3 2.454 5.454 5.454 5.454 1.91 0 3.546-1 4.546-2.454 1 1.454 2.636 2.454 4.545 2.454 1.91 0 3.545-1 4.545-2.454 1 1.454 2.637 2.454 4.546 2.454 1.909 0 3.545-1 4.545-2.454 1 1.454 2.637 2.454 4.546 2.454 3 0 5.454-2.454 5.454-5.454 0-.546-.363-.91-.909-.91z"/></g></svg>