<svg width="52" height="58" viewBox="0 0 52 58" xmlns="http://www.w3.org/2000/svg"><title>Shape</title><path d="M48.167 42.333c-.024 0-.05-.002-.08-.004-.423-.05-.732-.468-.69-.938.484-5.248.213-10.683-.823-16.618-1.43-8.174-6.761-14.889-13.911-17.525-.404-.15-.623-.633-.488-1.081.135-.447.569-.69.977-.54 7.677 2.83 13.402 10.043 14.938 18.822 1.067 6.102 1.343 11.7.845 17.116-.039.44-.375.768-.768.768zM4.063 40.517c2.168-3.532 1.89-5.124 1.568-6.966-1.059-6.055.076-12.205 3.194-17.318 3.12-5.112 7.85-8.572 13.32-9.744a18.765 18.765 0 0 1 6.668-.226c.425.056.811-.268.865-.736.056-.468-.24-.897-.665-.958a20.162 20.162 0 0 0-7.163.242c-5.874 1.26-10.955 4.976-14.305 10.467-3.349 5.49-4.568 12.095-3.43 18.598.288 1.65.478 2.737-1.328 5.682-.24.39-.148.923.205 1.188.133.1.283.147.433.147a.755.755 0 0 0 .638-.376zm1.568 3.424c3.952-5.776 3.505-8.333 3.033-11.042-.16-.906-.261-1.839-.305-2.777-.02-.473-.377-.835-.81-.81-.425.024-.754.425-.732.896a23.85 23.85 0 0 0 .33 3.016c.44 2.523.788 4.516-2.748 9.684-.257.376-.19.913.15 1.196a.722.722 0 0 0 1.082-.163zm39.026 4.392c1.244-5.182 1.659-10.464 1.271-16.146-.032-.471-.403-.822-.827-.788-.427.035-.746.445-.713.915.375 5.49-.025 10.585-1.224 15.579-.11.455.137.925.549 1.046a.737.737 0 0 0 .2.028c.34 0 .653-.252.744-.634zm.147-19.745c.422-.072.712-.509.646-.975a70.234 70.234 0 0 0-.392-2.514c-1.755-10.036-9.723-17.32-18.95-17.32a17.41 17.41 0 0 0-3.672.392c-5.064 1.085-9.444 4.29-12.332 9.022a22.551 22.551 0 0 0-3.026 8.292c-.073.465.209.908.629.99.425.08.82-.231.893-.696a20.755 20.755 0 0 1 2.784-7.63c2.657-4.354 6.686-7.302 11.346-8.3a16.058 16.058 0 0 1 3.378-.36c8.488 0 15.82 6.702 17.434 15.935.144.825.269 1.64.38 2.451.059.422.389.724.763.724a.81.81 0 0 0 .12-.011zm-8.296-12.086a.916.916 0 0 0-.106-1.204C33.504 12.656 29.85 11.2 26.108 11.2c-1.038 0-2.077.11-3.086.33-1.236.264-2.447.69-3.599 1.263-.388.194-.562.7-.387 1.13.175.43.631.622 1.021.428 1.043-.52 2.14-.904 3.26-1.144a13.232 13.232 0 0 1 2.791-.297c3.383 0 6.69 1.317 9.312 3.707a.721.721 0 0 0 .49.196.748.748 0 0 0 .598-.311zm3.612 36.017c3.019-8.427 3.624-16.933 1.905-26.77a18.812 18.812 0 0 0-2.693-6.966c-.247-.385-.729-.476-1.078-.202-.347.273-.43.807-.182 1.192a17.001 17.001 0 0 1 2.436 6.301c1.66 9.503 1.082 17.706-1.823 25.817-.157.438.037.936.434 1.109.093.041.188.06.283.06.307 0 .599-.204.718-.541zM7.484 46.874c5.039-7.04 4.907-10.643 4.213-14.622-.745-4.26.052-8.59 2.247-12.187a15.896 15.896 0 0 1 2.814-3.439.918.918 0 0 0 .1-1.203c-.272-.363-.758-.413-1.087-.112a17.538 17.538 0 0 0-3.108 3.797c-2.425 3.976-3.306 8.76-2.483 13.467.64 3.66.734 6.753-3.908 13.237-.265.37-.208.907.127 1.2a.72.72 0 0 0 1.085-.138zm2.111 2.554c2.046-2.804 3.468-5.293 4.346-7.606.165-.435-.02-.936-.413-1.12-.395-.181-.846.022-1.012.456-.82 2.163-2.17 4.517-4.123 7.196-.268.368-.216.906.115 1.202a.729.729 0 0 0 .485.189c.226 0 .45-.109.602-.317zm29.775-6.742c.761-5.149.638-10.477-.377-16.286-1.194-6.824-6.612-11.778-12.883-11.778-.84 0-1.68.09-2.5.267-3.444.737-6.421 2.916-8.385 6.135-1.964 3.218-2.678 7.09-2.011 10.904.337 1.927.427 3.544.285 5.09-.043.47.266.89.69.938.43.039.803-.294.846-.764.16-1.718.062-3.494-.304-5.59-.59-3.365.04-6.781 1.774-9.621 1.733-2.84 4.36-4.763 7.4-5.414a10.438 10.438 0 0 1 2.204-.235c5.534 0 10.315 4.371 11.367 10.394.98 5.607 1.1 10.738.369 15.685-.069.466.215.905.638.98a.62.62 0 0 0 .125.012c.372-.001.7-.298.762-.717zm-3.688 12.375a48.444 48.444 0 0 0 2.767-7.842c.116-.453-.121-.926-.531-1.055-.411-.13-.839.134-.954.588a46.408 46.408 0 0 1-2.662 7.544c-.19.423-.037.936.344 1.147a.73.73 0 0 0 .346.09c.282.001.554-.17.69-.472zm-23.729-3.42c5.549-7.567 7.123-13.175 5.81-20.69-.432-2.468.03-4.974 1.301-7.056 1.271-2.083 3.198-3.492 5.426-3.97a7.777 7.777 0 0 1 2.317-.139c.421.038.798-.313.832-.783.035-.47-.282-.883-.707-.92a9.189 9.189 0 0 0-2.737.163c-2.633.564-4.91 2.23-6.412 4.691-1.501 2.46-2.047 5.42-1.537 8.337 1.213 6.945-.275 12.173-5.492 19.288-.269.367-.219.906.113 1.201a.727.727 0 0 0 .485.193.738.738 0 0 0 .601-.315zm19.522 4.797c4.93-9.349 6.356-18.687 4.485-29.389-.549-3.137-2.3-5.867-4.802-7.487-.367-.24-.84-.102-1.056.305-.215.408-.092.93.276 1.17 2.119 1.372 3.6 3.682 4.066 6.337 1.794 10.271.429 19.233-4.302 28.203-.214.408-.09.931.277 1.168.122.08.257.117.39.117.264 0 .522-.15.666-.424zm-3.928.515c3.356-5.717 5.281-11.325 5.886-17.145.048-.47-.255-.893-.679-.946-.426-.053-.807.283-.855.751-.578 5.551-2.425 10.918-5.648 16.408-.232.397-.13.926.227 1.183a.72.72 0 0 0 .42.138.755.755 0 0 0 .65-.39zm6.098-21.818a46.778 46.778 0 0 0-.72-7.434c-.631-3.614-3.498-6.236-6.818-6.236-.444 0-.89.048-1.326.141-1.824.392-3.4 1.545-4.44 3.249a8.126 8.126 0 0 0-1.035 2.688c-.09.461.175.916.592 1.015.419.096.828-.195.918-.656a6.334 6.334 0 0 1 .805-2.093c.808-1.324 2.035-2.223 3.454-2.528.339-.072.687-.112 1.032-.112 2.581 0 4.811 2.034 5.302 4.844.427 2.446.66 4.842.692 7.148.006.467.35.816.772.816.439-.001.779-.372.772-.842zm-19.09 18.379c5.54-7.652 7.426-13.85 6.506-21.39-.057-.47-.448-.792-.868-.733-.423.063-.72.493-.662.961.868 7.119-.865 12.753-6.18 20.094-.268.37-.214.908.12 1.201a.723.723 0 0 0 .482.188c.226 0 .45-.109.603-.321zm2.858 1.514c2.318-3.29 3.995-6.342 5.124-9.332.164-.436-.022-.937-.416-1.12-.395-.183-.846.023-1.01.46-1.075 2.847-2.683 5.772-4.916 8.94-.262.373-.202.908.135 1.198a.721.721 0 0 0 1.083-.146zm6.495 1.795c6.034-9.438 7.824-17.953 5.986-28.471-.196-1.123-.776-2.094-1.632-2.734-.854-.638-1.882-.87-2.893-.652-1.012.217-1.888.857-2.466 1.804a4.62 4.62 0 0 0-.591 3.206c.688 3.939.69 7.497.008 10.879-.093.46.169.917.585 1.02.419.103.83-.188.922-.648.73-3.614.731-7.403.002-11.578a2.78 2.78 0 0 1 .355-1.925c.346-.569.87-.952 1.48-1.083a2.12 2.12 0 0 1 1.733.39c.515.384.862.967.982 1.642 1.75 10.016.036 18.14-5.731 27.16-.246.386-.164.918.185 1.192a.721.721 0 0 0 .445.158.75.75 0 0 0 .63-.36zm-3.381-.672c6.175-9.105 8.068-17.225 6.334-27.151-.08-.464-.488-.767-.905-.677-.418.09-.692.537-.612 1.001 1.667 9.53-.088 17.004-6.052 25.8-.257.378-.187.914.154 1.196a.722.722 0 0 0 1.081-.169zM2.252 36.338c.415-.11.67-.571.572-1.03-.016-.071-.031-.131-.046-.187l-.16-1.02A28.825 28.825 0 0 1 4.87 16.958c.196-.419.088-.935-.29-1.152-.38-.217-.766-.053-.962.366-2.62 5.593-3.78 12.042-2.235 18.17 0 .65-.043.888.04 1.156.018.058-.121.12-.102.21.085.391.402.656.751.656.06-.002.12-.01.18-.025zm4.688-23.07c3.563-5.282 8.753-8.882 14.617-10.138a21.509 21.509 0 0 1 4.551-.484c3.657 0 7.183.906 10.483 2.693.385.208.848.034 1.034-.391.187-.424.028-.936-.355-1.143C33.757 1.9 30.003.936 26.108.936c-1.633 0-3.265.174-4.846.517-6.24 1.336-11.766 5.17-15.56 10.794-.256.378-.185.913.156 1.195.14.115.3.17.462.17a.748.748 0 0 0 .62-.343zm44.649 15.934c0-1.794-.15-3.544-.462-5.35l-.121-.695c-1.407-6.793-5.057-12.93-10.104-16.926-.348-.276-.829-.186-1.078.197-.248.384-.17.918.177 1.192 4.9 3.88 8.4 9.916 9.606 16.559l.032.173c.273 1.637.405 3.225.405 4.85 0 .472.345.855.773.855.427 0 .772-.383.772-.855z" fill="#FFF" fill-rule="evenodd"/></svg>